<?xml version="1.0" encoding="utf-8" standalone="no"?>
<!DOCTYPE svg PUBLIC "-//W3C//DTD SVG 1.1//EN"
  "http://www.w3.org/Graphics/SVG/1.1/DTD/svg11.dtd">
<svg xmlns:xlink="http://www.w3.org/1999/xlink" width="414.46375pt" height="310.86825pt" viewBox="0 0 414.46375 310.86825" xmlns="http://www.w3.org/2000/svg" version="1.1">
 <metadata>
  <rdf:RDF xmlns:dc="http://purl.org/dc/elements/1.1/" xmlns:cc="http://creativecommons.org/ns#" xmlns:rdf="http://www.w3.org/1999/02/22-rdf-syntax-ns#">
   <cc:Work>
    <dc:type rdf:resource="http://purl.org/dc/dcmitype/StillImage"/>
    <dc:date>2025-04-29T01:18:26.586931</dc:date>
    <dc:format>image/svg+xml</dc:format>
    <dc:creator>
     <cc:Agent>
      <dc:title>Matplotlib v3.6.3, https://matplotlib.org/</dc:title>
     </cc:Agent>
    </dc:creator>
   </cc:Work>
  </rdf:RDF>
 </metadata>
 <defs>
  <style type="text/css">*{stroke-linejoin: round; stroke-linecap: butt}</style>
 </defs>
 <g id="figure_1">
  <g id="patch_1">
   <path d="M 0 310.86825 
L 414.46375 310.86825 
L 414.46375 0 
L 0 0 
z
" style="fill: #ffffff"/>
  </g>
  <g id="axes_1">
   <g id="patch_2">
    <path d="M 50.14375 273.312 
L 407.26375 273.312 
L 407.26375 7.2 
L 50.14375 7.2 
z
" style="fill: #ffffff"/>
   </g>
   <g id="PathCollection_1">
    <defs>
     <path id="m857a3b9823" d="M 0 0.707107 
C 0.187527 0.707107 0.367398 0.632602 0.5 0.5 
C 0.632602 0.367398 0.707107 0.187527 0.707107 0 
C 0.707107 -0.187527 0.632602 -0.367398 0.5 -0.5 
C 0.367398 -0.632602 0.187527 -0.707107 0 -0.707107 
C -0.187527 -0.707107 -0.367398 -0.632602 -0.5 -0.5 
C -0.632602 -0.367398 -0.707107 -0.187527 -0.707107 0 
C -0.707107 0.187527 -0.632602 0.367398 -0.5 0.5 
C -0.367398 0.632602 -0.187527 0.707107 0 0.707107 
z
" style="stroke: #ffffff; stroke-width: 0.113137"/>
    </defs>
    <g clip-path="url(#p427c089f8b)">
     <use xlink:href="#m857a3b9823" x="66.376477" y="200.736" style="fill: #1f77b4; stroke: #ffffff; stroke-width: 0.113137"/>
     <use xlink:href="#m857a3b9823" x="69.655816" y="200.736" style="fill: #1f77b4; stroke: #ffffff; stroke-width: 0.113137"/>
     <use xlink:href="#m857a3b9823" x="72.935155" y="200.736" style="fill: #1f77b4; stroke: #ffffff; stroke-width: 0.113137"/>
     <use xlink:href="#m857a3b9823" x="76.214494" y="200.736" style="fill: #1f77b4; stroke: #ffffff; stroke-width: 0.113137"/>
     <use xlink:href="#m857a3b9823" x="79.493833" y="200.736" style="fill: #1f77b4; stroke: #ffffff; stroke-width: 0.113137"/>
     <use xlink:href="#m857a3b9823" x="82.773171" y="261.216" style="fill: #1f77b4; stroke: #ffffff; stroke-width: 0.113137"/>
     <use xlink:href="#m857a3b9823" x="86.05251" y="200.736" style="fill: #1f77b4; stroke: #ffffff; stroke-width: 0.113137"/>
     <use xlink:href="#m857a3b9823" x="89.331849" y="200.736" style="fill: #1f77b4; stroke: #ffffff; stroke-width: 0.113137"/>
     <use xlink:href="#m857a3b9823" x="92.611188" y="200.736" style="fill: #1f77b4; stroke: #ffffff; stroke-width: 0.113137"/>
     <use xlink:href="#m857a3b9823" x="95.890527" y="79.776" style="fill: #1f77b4; stroke: #ffffff; stroke-width: 0.113137"/>
     <use xlink:href="#m857a3b9823" x="99.169866" y="200.736" style="fill: #1f77b4; stroke: #ffffff; stroke-width: 0.113137"/>
     <use xlink:href="#m857a3b9823" x="102.449205" y="200.736" style="fill: #1f77b4; stroke: #ffffff; stroke-width: 0.113137"/>
     <use xlink:href="#m857a3b9823" x="105.728543" y="200.736" style="fill: #1f77b4; stroke: #ffffff; stroke-width: 0.113137"/>
     <use xlink:href="#m857a3b9823" x="109.007882" y="261.216" style="fill: #1f77b4; stroke: #ffffff; stroke-width: 0.113137"/>
     <use xlink:href="#m857a3b9823" x="112.287221" y="200.736" style="fill: #1f77b4; stroke: #ffffff; stroke-width: 0.113137"/>
     <use xlink:href="#m857a3b9823" x="115.56656" y="261.216" style="fill: #1f77b4; stroke: #ffffff; stroke-width: 0.113137"/>
     <use xlink:href="#m857a3b9823" x="118.845899" y="200.736" style="fill: #1f77b4; stroke: #ffffff; stroke-width: 0.113137"/>
     <use xlink:href="#m857a3b9823" x="122.125238" y="261.216" style="fill: #1f77b4; stroke: #ffffff; stroke-width: 0.113137"/>
     <use xlink:href="#m857a3b9823" x="125.404576" y="261.216" style="fill: #1f77b4; stroke: #ffffff; stroke-width: 0.113137"/>
     <use xlink:href="#m857a3b9823" x="128.683915" y="200.736" style="fill: #1f77b4; stroke: #ffffff; stroke-width: 0.113137"/>
     <use xlink:href="#m857a3b9823" x="131.963254" y="261.216" style="fill: #1f77b4; stroke: #ffffff; stroke-width: 0.113137"/>
     <use xlink:href="#m857a3b9823" x="135.242593" y="261.216" style="fill: #1f77b4; stroke: #ffffff; stroke-width: 0.113137"/>
     <use xlink:href="#m857a3b9823" x="138.521932" y="261.216" style="fill: #1f77b4; stroke: #ffffff; stroke-width: 0.113137"/>
     <use xlink:href="#m857a3b9823" x="141.801271" y="200.736" style="fill: #1f77b4; stroke: #ffffff; stroke-width: 0.113137"/>
     <use xlink:href="#m857a3b9823" x="145.08061" y="261.216" style="fill: #1f77b4; stroke: #ffffff; stroke-width: 0.113137"/>
     <use xlink:href="#m857a3b9823" x="148.359948" y="261.216" style="fill: #1f77b4; stroke: #ffffff; stroke-width: 0.113137"/>
     <use xlink:href="#m857a3b9823" x="151.639287" y="200.736" style="fill: #1f77b4; stroke: #ffffff; stroke-width: 0.113137"/>
     <use xlink:href="#m857a3b9823" x="154.918626" y="261.216" style="fill: #1f77b4; stroke: #ffffff; stroke-width: 0.113137"/>
     <use xlink:href="#m857a3b9823" x="158.197965" y="261.216" style="fill: #1f77b4; stroke: #ffffff; stroke-width: 0.113137"/>
     <use xlink:href="#m857a3b9823" x="161.477304" y="261.216" style="fill: #1f77b4; stroke: #ffffff; stroke-width: 0.113137"/>
     <use xlink:href="#m857a3b9823" x="164.756643" y="200.736" style="fill: #1f77b4; stroke: #ffffff; stroke-width: 0.113137"/>
     <use xlink:href="#m857a3b9823" x="168.035981" y="200.736" style="fill: #1f77b4; stroke: #ffffff; stroke-width: 0.113137"/>
     <use xlink:href="#m857a3b9823" x="171.31532" y="261.216" style="fill: #1f77b4; stroke: #ffffff; stroke-width: 0.113137"/>
     <use xlink:href="#m857a3b9823" x="174.594659" y="261.216" style="fill: #1f77b4; stroke: #ffffff; stroke-width: 0.113137"/>
     <use xlink:href="#m857a3b9823" x="177.873998" y="200.736" style="fill: #1f77b4; stroke: #ffffff; stroke-width: 0.113137"/>
     <use xlink:href="#m857a3b9823" x="181.153337" y="200.736" style="fill: #1f77b4; stroke: #ffffff; stroke-width: 0.113137"/>
     <use xlink:href="#m857a3b9823" x="184.432676" y="261.216" style="fill: #1f77b4; stroke: #ffffff; stroke-width: 0.113137"/>
     <use xlink:href="#m857a3b9823" x="187.712014" y="200.736" style="fill: #1f77b4; stroke: #ffffff; stroke-width: 0.113137"/>
     <use xlink:href="#m857a3b9823" x="190.991353" y="200.736" style="fill: #1f77b4; stroke: #ffffff; stroke-width: 0.113137"/>
     <use xlink:href="#m857a3b9823" x="194.270692" y="200.736" style="fill: #1f77b4; stroke: #ffffff; stroke-width: 0.113137"/>
     <use xlink:href="#m857a3b9823" x="197.550031" y="200.736" style="fill: #1f77b4; stroke: #ffffff; stroke-width: 0.113137"/>
     <use xlink:href="#m857a3b9823" x="200.82937" y="261.216" style="fill: #1f77b4; stroke: #ffffff; stroke-width: 0.113137"/>
     <use xlink:href="#m857a3b9823" x="204.108709" y="261.216" style="fill: #1f77b4; stroke: #ffffff; stroke-width: 0.113137"/>
     <use xlink:href="#m857a3b9823" x="207.388048" y="200.736" style="fill: #1f77b4; stroke: #ffffff; stroke-width: 0.113137"/>
     <use xlink:href="#m857a3b9823" x="210.667386" y="200.736" style="fill: #1f77b4; stroke: #ffffff; stroke-width: 0.113137"/>
     <use xlink:href="#m857a3b9823" x="213.946725" y="140.256" style="fill: #1f77b4; stroke: #ffffff; stroke-width: 0.113137"/>
     <use xlink:href="#m857a3b9823" x="217.226064" y="200.736" style="fill: #1f77b4; stroke: #ffffff; stroke-width: 0.113137"/>
     <use xlink:href="#m857a3b9823" x="220.505403" y="200.736" style="fill: #1f77b4; stroke: #ffffff; stroke-width: 0.113137"/>
     <use xlink:href="#m857a3b9823" x="223.784742" y="200.736" style="fill: #1f77b4; stroke: #ffffff; stroke-width: 0.113137"/>
     <use xlink:href="#m857a3b9823" x="227.064081" y="200.736" style="fill: #1f77b4; stroke: #ffffff; stroke-width: 0.113137"/>
     <use xlink:href="#m857a3b9823" x="230.343419" y="200.736" style="fill: #1f77b4; stroke: #ffffff; stroke-width: 0.113137"/>
     <use xlink:href="#m857a3b9823" x="233.622758" y="200.736" style="fill: #1f77b4; stroke: #ffffff; stroke-width: 0.113137"/>
     <use xlink:href="#m857a3b9823" x="236.902097" y="200.736" style="fill: #1f77b4; stroke: #ffffff; stroke-width: 0.113137"/>
     <use xlink:href="#m857a3b9823" x="240.181436" y="200.736" style="fill: #1f77b4; stroke: #ffffff; stroke-width: 0.113137"/>
     <use xlink:href="#m857a3b9823" x="243.460775" y="200.736" style="fill: #1f77b4; stroke: #ffffff; stroke-width: 0.113137"/>
     <use xlink:href="#m857a3b9823" x="246.740114" y="200.736" style="fill: #1f77b4; stroke: #ffffff; stroke-width: 0.113137"/>
     <use xlink:href="#m857a3b9823" x="250.019452" y="200.736" style="fill: #1f77b4; stroke: #ffffff; stroke-width: 0.113137"/>
     <use xlink:href="#m857a3b9823" x="253.298791" y="200.736" style="fill: #1f77b4; stroke: #ffffff; stroke-width: 0.113137"/>
     <use xlink:href="#m857a3b9823" x="256.57813" y="200.736" style="fill: #1f77b4; stroke: #ffffff; stroke-width: 0.113137"/>
     <use xlink:href="#m857a3b9823" x="259.857469" y="261.216" style="fill: #1f77b4; stroke: #ffffff; stroke-width: 0.113137"/>
     <use xlink:href="#m857a3b9823" x="263.136808" y="200.736" style="fill: #1f77b4; stroke: #ffffff; stroke-width: 0.113137"/>
     <use xlink:href="#m857a3b9823" x="266.416147" y="200.736" style="fill: #1f77b4; stroke: #ffffff; stroke-width: 0.113137"/>
     <use xlink:href="#m857a3b9823" x="269.695486" y="19.296" style="fill: #1f77b4; stroke: #ffffff; stroke-width: 0.113137"/>
     <use xlink:href="#m857a3b9823" x="272.974824" y="261.216" style="fill: #1f77b4; stroke: #ffffff; stroke-width: 0.113137"/>
     <use xlink:href="#m857a3b9823" x="276.254163" y="261.216" style="fill: #1f77b4; stroke: #ffffff; stroke-width: 0.113137"/>
     <use xlink:href="#m857a3b9823" x="279.533502" y="200.736" style="fill: #1f77b4; stroke: #ffffff; stroke-width: 0.113137"/>
     <use xlink:href="#m857a3b9823" x="282.812841" y="200.736" style="fill: #1f77b4; stroke: #ffffff; stroke-width: 0.113137"/>
     <use xlink:href="#m857a3b9823" x="286.09218" y="200.736" style="fill: #1f77b4; stroke: #ffffff; stroke-width: 0.113137"/>
     <use xlink:href="#m857a3b9823" x="289.371519" y="261.216" style="fill: #1f77b4; stroke: #ffffff; stroke-width: 0.113137"/>
     <use xlink:href="#m857a3b9823" x="292.650857" y="200.736" style="fill: #1f77b4; stroke: #ffffff; stroke-width: 0.113137"/>
     <use xlink:href="#m857a3b9823" x="295.930196" y="261.216" style="fill: #1f77b4; stroke: #ffffff; stroke-width: 0.113137"/>
     <use xlink:href="#m857a3b9823" x="299.209535" y="261.216" style="fill: #1f77b4; stroke: #ffffff; stroke-width: 0.113137"/>
     <use xlink:href="#m857a3b9823" x="302.488874" y="200.736" style="fill: #1f77b4; stroke: #ffffff; stroke-width: 0.113137"/>
     <use xlink:href="#m857a3b9823" x="305.768213" y="200.736" style="fill: #1f77b4; stroke: #ffffff; stroke-width: 0.113137"/>
     <use xlink:href="#m857a3b9823" x="309.047552" y="140.256" style="fill: #1f77b4; stroke: #ffffff; stroke-width: 0.113137"/>
     <use xlink:href="#m857a3b9823" x="312.32689" y="261.216" style="fill: #1f77b4; stroke: #ffffff; stroke-width: 0.113137"/>
     <use xlink:href="#m857a3b9823" x="315.606229" y="200.736" style="fill: #1f77b4; stroke: #ffffff; stroke-width: 0.113137"/>
     <use xlink:href="#m857a3b9823" x="318.885568" y="140.256" style="fill: #1f77b4; stroke: #ffffff; stroke-width: 0.113137"/>
     <use xlink:href="#m857a3b9823" x="322.164907" y="261.216" style="fill: #1f77b4; stroke: #ffffff; stroke-width: 0.113137"/>
     <use xlink:href="#m857a3b9823" x="325.444246" y="261.216" style="fill: #1f77b4; stroke: #ffffff; stroke-width: 0.113137"/>
     <use xlink:href="#m857a3b9823" x="328.723585" y="200.736" style="fill: #1f77b4; stroke: #ffffff; stroke-width: 0.113137"/>
     <use xlink:href="#m857a3b9823" x="332.002924" y="261.216" style="fill: #1f77b4; stroke: #ffffff; stroke-width: 0.113137"/>
     <use xlink:href="#m857a3b9823" x="335.282262" y="261.216" style="fill: #1f77b4; stroke: #ffffff; stroke-width: 0.113137"/>
     <use xlink:href="#m857a3b9823" x="338.561601" y="261.216" style="fill: #1f77b4; stroke: #ffffff; stroke-width: 0.113137"/>
     <use xlink:href="#m857a3b9823" x="341.84094" y="200.736" style="fill: #1f77b4; stroke: #ffffff; stroke-width: 0.113137"/>
     <use xlink:href="#m857a3b9823" x="345.120279" y="200.736" style="fill: #1f77b4; stroke: #ffffff; stroke-width: 0.113137"/>
     <use xlink:href="#m857a3b9823" x="348.399618" y="200.736" style="fill: #1f77b4; stroke: #ffffff; stroke-width: 0.113137"/>
     <use xlink:href="#m857a3b9823" x="351.678957" y="200.736" style="fill: #1f77b4; stroke: #ffffff; stroke-width: 0.113137"/>
     <use xlink:href="#m857a3b9823" x="354.958295" y="200.736" style="fill: #1f77b4; stroke: #ffffff; stroke-width: 0.113137"/>
     <use xlink:href="#m857a3b9823" x="358.237634" y="200.736" style="fill: #1f77b4; stroke: #ffffff; stroke-width: 0.113137"/>
     <use xlink:href="#m857a3b9823" x="361.516973" y="200.736" style="fill: #1f77b4; stroke: #ffffff; stroke-width: 0.113137"/>
     <use xlink:href="#m857a3b9823" x="364.796312" y="140.256" style="fill: #1f77b4; stroke: #ffffff; stroke-width: 0.113137"/>
     <use xlink:href="#m857a3b9823" x="368.075651" y="200.736" style="fill: #1f77b4; stroke: #ffffff; stroke-width: 0.113137"/>
     <use xlink:href="#m857a3b9823" x="371.35499" y="140.256" style="fill: #1f77b4; stroke: #ffffff; stroke-width: 0.113137"/>
     <use xlink:href="#m857a3b9823" x="374.634329" y="200.736" style="fill: #1f77b4; stroke: #ffffff; stroke-width: 0.113137"/>
     <use xlink:href="#m857a3b9823" x="377.913667" y="200.736" style="fill: #1f77b4; stroke: #ffffff; stroke-width: 0.113137"/>
     <use xlink:href="#m857a3b9823" x="381.193006" y="200.736" style="fill: #1f77b4; stroke: #ffffff; stroke-width: 0.113137"/>
     <use xlink:href="#m857a3b9823" x="384.472345" y="200.736" style="fill: #1f77b4; stroke: #ffffff; stroke-width: 0.113137"/>
     <use xlink:href="#m857a3b9823" x="387.751684" y="200.736" style="fill: #1f77b4; stroke: #ffffff; stroke-width: 0.113137"/>
     <use xlink:href="#m857a3b9823" x="391.031023" y="261.216" style="fill: #1f77b4; stroke: #ffffff; stroke-width: 0.113137"/>
    </g>
   </g>
   <g id="matplotlib.axis_1">
    <g id="xtick_1">
     <g id="line2d_1">
      <defs>
       <path id="m920872c5f6" d="M 0 0 
L 0 3.5 
" style="stroke: #000000; stroke-width: 0.8"/>
      </defs>
      <g>
       <use xlink:href="#m920872c5f6" x="66.376477" y="273.312" style="stroke: #000000; stroke-width: 0.8"/>
      </g>
     </g>
     <g id="text_1">
      <!-- 0 -->
      <g transform="translate(63.195227 287.910438) scale(0.1 -0.1)">
       <defs>
        <path id="DejaVuSans-30" d="M 2034 4250 
Q 1547 4250 1301 3770 
Q 1056 3291 1056 2328 
Q 1056 1369 1301 889 
Q 1547 409 2034 409 
Q 2525 409 2770 889 
Q 3016 1369 3016 2328 
Q 3016 3291 2770 3770 
Q 2525 4250 2034 4250 
z
M 2034 4750 
Q 2819 4750 3233 4129 
Q 3647 3509 3647 2328 
Q 3647 1150 3233 529 
Q 2819 -91 2034 -91 
Q 1250 -91 836 529 
Q 422 1150 422 2328 
Q 422 3509 836 4129 
Q 1250 4750 2034 4750 
z
" transform="scale(0.015625)"/>
       </defs>
       <use xlink:href="#DejaVuSans-30"/>
      </g>
     </g>
    </g>
    <g id="text_2">
     <!-- Test index -->
     <g transform="translate(203.588906 301.588563) scale(0.1 -0.1)">
      <defs>
       <path id="DejaVuSans-54" d="M -19 4666 
L 3928 4666 
L 3928 4134 
L 2272 4134 
L 2272 0 
L 1638 0 
L 1638 4134 
L -19 4134 
L -19 4666 
z
" transform="scale(0.015625)"/>
       <path id="DejaVuSans-65" d="M 3597 1894 
L 3597 1613 
L 953 1613 
Q 991 1019 1311 708 
Q 1631 397 2203 397 
Q 2534 397 2845 478 
Q 3156 559 3463 722 
L 3463 178 
Q 3153 47 2828 -22 
Q 2503 -91 2169 -91 
Q 1331 -91 842 396 
Q 353 884 353 1716 
Q 353 2575 817 3079 
Q 1281 3584 2069 3584 
Q 2775 3584 3186 3129 
Q 3597 2675 3597 1894 
z
M 3022 2063 
Q 3016 2534 2758 2815 
Q 2500 3097 2075 3097 
Q 1594 3097 1305 2825 
Q 1016 2553 972 2059 
L 3022 2063 
z
" transform="scale(0.015625)"/>
       <path id="DejaVuSans-73" d="M 2834 3397 
L 2834 2853 
Q 2591 2978 2328 3040 
Q 2066 3103 1784 3103 
Q 1356 3103 1142 2972 
Q 928 2841 928 2578 
Q 928 2378 1081 2264 
Q 1234 2150 1697 2047 
L 1894 2003 
Q 2506 1872 2764 1633 
Q 3022 1394 3022 966 
Q 3022 478 2636 193 
Q 2250 -91 1575 -91 
Q 1294 -91 989 -36 
Q 684 19 347 128 
L 347 722 
Q 666 556 975 473 
Q 1284 391 1588 391 
Q 1994 391 2212 530 
Q 2431 669 2431 922 
Q 2431 1156 2273 1281 
Q 2116 1406 1581 1522 
L 1381 1569 
Q 847 1681 609 1914 
Q 372 2147 372 2553 
Q 372 3047 722 3315 
Q 1072 3584 1716 3584 
Q 2034 3584 2315 3537 
Q 2597 3491 2834 3397 
z
" transform="scale(0.015625)"/>
       <path id="DejaVuSans-74" d="M 1172 4494 
L 1172 3500 
L 2356 3500 
L 2356 3053 
L 1172 3053 
L 1172 1153 
Q 1172 725 1289 603 
Q 1406 481 1766 481 
L 2356 481 
L 2356 0 
L 1766 0 
Q 1100 0 847 248 
Q 594 497 594 1153 
L 594 3053 
L 172 3053 
L 172 3500 
L 594 3500 
L 594 4494 
L 1172 4494 
z
" transform="scale(0.015625)"/>
       <path id="DejaVuSans-20" transform="scale(0.015625)"/>
       <path id="DejaVuSans-69" d="M 603 3500 
L 1178 3500 
L 1178 0 
L 603 0 
L 603 3500 
z
M 603 4863 
L 1178 4863 
L 1178 4134 
L 603 4134 
L 603 4863 
z
" transform="scale(0.015625)"/>
       <path id="DejaVuSans-6e" d="M 3513 2113 
L 3513 0 
L 2938 0 
L 2938 2094 
Q 2938 2591 2744 2837 
Q 2550 3084 2163 3084 
Q 1697 3084 1428 2787 
Q 1159 2491 1159 1978 
L 1159 0 
L 581 0 
L 581 3500 
L 1159 3500 
L 1159 2956 
Q 1366 3272 1645 3428 
Q 1925 3584 2291 3584 
Q 2894 3584 3203 3211 
Q 3513 2838 3513 2113 
z
" transform="scale(0.015625)"/>
       <path id="DejaVuSans-64" d="M 2906 2969 
L 2906 4863 
L 3481 4863 
L 3481 0 
L 2906 0 
L 2906 525 
Q 2725 213 2448 61 
Q 2172 -91 1784 -91 
Q 1150 -91 751 415 
Q 353 922 353 1747 
Q 353 2572 751 3078 
Q 1150 3584 1784 3584 
Q 2172 3584 2448 3432 
Q 2725 3281 2906 2969 
z
M 947 1747 
Q 947 1113 1208 752 
Q 1469 391 1925 391 
Q 2381 391 2643 752 
Q 2906 1113 2906 1747 
Q 2906 2381 2643 2742 
Q 2381 3103 1925 3103 
Q 1469 3103 1208 2742 
Q 947 2381 947 1747 
z
" transform="scale(0.015625)"/>
       <path id="DejaVuSans-78" d="M 3513 3500 
L 2247 1797 
L 3578 0 
L 2900 0 
L 1881 1375 
L 863 0 
L 184 0 
L 1544 1831 
L 300 3500 
L 978 3500 
L 1906 2253 
L 2834 3500 
L 3513 3500 
z
" transform="scale(0.015625)"/>
      </defs>
      <use xlink:href="#DejaVuSans-54"/>
      <use xlink:href="#DejaVuSans-65" x="44.083984"/>
      <use xlink:href="#DejaVuSans-73" x="105.607422"/>
      <use xlink:href="#DejaVuSans-74" x="157.707031"/>
      <use xlink:href="#DejaVuSans-20" x="196.916016"/>
      <use xlink:href="#DejaVuSans-69" x="228.703125"/>
      <use xlink:href="#DejaVuSans-6e" x="256.486328"/>
      <use xlink:href="#DejaVuSans-64" x="319.865234"/>
      <use xlink:href="#DejaVuSans-65" x="383.341797"/>
      <use xlink:href="#DejaVuSans-78" x="443.115234"/>
     </g>
    </g>
   </g>
   <g id="matplotlib.axis_2">
    <g id="ytick_1">
     <g id="line2d_2">
      <defs>
       <path id="m4251309b94" d="M 0 0 
L -3.5 0 
" style="stroke: #000000; stroke-width: 0.8"/>
      </defs>
      <g>
       <use xlink:href="#m4251309b94" x="50.14375" y="261.216" style="stroke: #000000; stroke-width: 0.8"/>
      </g>
     </g>
     <g id="text_3">
      <!-- 22.0 -->
      <g transform="translate(20.878125 265.015219) scale(0.1 -0.1)">
       <defs>
        <path id="DejaVuSans-32" d="M 1228 531 
L 3431 531 
L 3431 0 
L 469 0 
L 469 531 
Q 828 903 1448 1529 
Q 2069 2156 2228 2338 
Q 2531 2678 2651 2914 
Q 2772 3150 2772 3378 
Q 2772 3750 2511 3984 
Q 2250 4219 1831 4219 
Q 1534 4219 1204 4116 
Q 875 4013 500 3803 
L 500 4441 
Q 881 4594 1212 4672 
Q 1544 4750 1819 4750 
Q 2544 4750 2975 4387 
Q 3406 4025 3406 3419 
Q 3406 3131 3298 2873 
Q 3191 2616 2906 2266 
Q 2828 2175 2409 1742 
Q 1991 1309 1228 531 
z
" transform="scale(0.015625)"/>
        <path id="DejaVuSans-2e" d="M 684 794 
L 1344 794 
L 1344 0 
L 684 0 
L 684 794 
z
" transform="scale(0.015625)"/>
       </defs>
       <use xlink:href="#DejaVuSans-32"/>
       <use xlink:href="#DejaVuSans-32" x="63.623047"/>
       <use xlink:href="#DejaVuSans-2e" x="127.246094"/>
       <use xlink:href="#DejaVuSans-30" x="159.033203"/>
      </g>
     </g>
    </g>
    <g id="ytick_2">
     <g id="line2d_3">
      <g>
       <use xlink:href="#m4251309b94" x="50.14375" y="230.976" style="stroke: #000000; stroke-width: 0.8"/>
      </g>
     </g>
     <g id="text_4">
      <!-- 22.5 -->
      <g transform="translate(20.878125 234.775219) scale(0.1 -0.1)">
       <defs>
        <path id="DejaVuSans-35" d="M 691 4666 
L 3169 4666 
L 3169 4134 
L 1269 4134 
L 1269 2991 
Q 1406 3038 1543 3061 
Q 1681 3084 1819 3084 
Q 2600 3084 3056 2656 
Q 3513 2228 3513 1497 
Q 3513 744 3044 326 
Q 2575 -91 1722 -91 
Q 1428 -91 1123 -41 
Q 819 9 494 109 
L 494 744 
Q 775 591 1075 516 
Q 1375 441 1709 441 
Q 2250 441 2565 725 
Q 2881 1009 2881 1497 
Q 2881 1984 2565 2268 
Q 2250 2553 1709 2553 
Q 1456 2553 1204 2497 
Q 953 2441 691 2322 
L 691 4666 
z
" transform="scale(0.015625)"/>
       </defs>
       <use xlink:href="#DejaVuSans-32"/>
       <use xlink:href="#DejaVuSans-32" x="63.623047"/>
       <use xlink:href="#DejaVuSans-2e" x="127.246094"/>
       <use xlink:href="#DejaVuSans-35" x="159.033203"/>
      </g>
     </g>
    </g>
    <g id="ytick_3">
     <g id="line2d_4">
      <g>
       <use xlink:href="#m4251309b94" x="50.14375" y="200.736" style="stroke: #000000; stroke-width: 0.8"/>
      </g>
     </g>
     <g id="text_5">
      <!-- 23.0 -->
      <g transform="translate(20.878125 204.535219) scale(0.1 -0.1)">
       <defs>
        <path id="DejaVuSans-33" d="M 2597 2516 
Q 3050 2419 3304 2112 
Q 3559 1806 3559 1356 
Q 3559 666 3084 287 
Q 2609 -91 1734 -91 
Q 1441 -91 1130 -33 
Q 819 25 488 141 
L 488 750 
Q 750 597 1062 519 
Q 1375 441 1716 441 
Q 2309 441 2620 675 
Q 2931 909 2931 1356 
Q 2931 1769 2642 2001 
Q 2353 2234 1838 2234 
L 1294 2234 
L 1294 2753 
L 1863 2753 
Q 2328 2753 2575 2939 
Q 2822 3125 2822 3475 
Q 2822 3834 2567 4026 
Q 2313 4219 1838 4219 
Q 1578 4219 1281 4162 
Q 984 4106 628 3988 
L 628 4550 
Q 988 4650 1302 4700 
Q 1616 4750 1894 4750 
Q 2613 4750 3031 4423 
Q 3450 4097 3450 3541 
Q 3450 3153 3228 2886 
Q 3006 2619 2597 2516 
z
" transform="scale(0.015625)"/>
       </defs>
       <use xlink:href="#DejaVuSans-32"/>
       <use xlink:href="#DejaVuSans-33" x="63.623047"/>
       <use xlink:href="#DejaVuSans-2e" x="127.246094"/>
       <use xlink:href="#DejaVuSans-30" x="159.033203"/>
      </g>
     </g>
    </g>
    <g id="ytick_4">
     <g id="line2d_5">
      <g>
       <use xlink:href="#m4251309b94" x="50.14375" y="170.496" style="stroke: #000000; stroke-width: 0.8"/>
      </g>
     </g>
     <g id="text_6">
      <!-- 23.5 -->
      <g transform="translate(20.878125 174.295219) scale(0.1 -0.1)">
       <use xlink:href="#DejaVuSans-32"/>
       <use xlink:href="#DejaVuSans-33" x="63.623047"/>
       <use xlink:href="#DejaVuSans-2e" x="127.246094"/>
       <use xlink:href="#DejaVuSans-35" x="159.033203"/>
      </g>
     </g>
    </g>
    <g id="ytick_5">
     <g id="line2d_6">
      <g>
       <use xlink:href="#m4251309b94" x="50.14375" y="140.256" style="stroke: #000000; stroke-width: 0.8"/>
      </g>
     </g>
     <g id="text_7">
      <!-- 24.0 -->
      <g transform="translate(20.878125 144.055219) scale(0.1 -0.1)">
       <defs>
        <path id="DejaVuSans-34" d="M 2419 4116 
L 825 1625 
L 2419 1625 
L 2419 4116 
z
M 2253 4666 
L 3047 4666 
L 3047 1625 
L 3713 1625 
L 3713 1100 
L 3047 1100 
L 3047 0 
L 2419 0 
L 2419 1100 
L 313 1100 
L 313 1709 
L 2253 4666 
z
" transform="scale(0.015625)"/>
       </defs>
       <use xlink:href="#DejaVuSans-32"/>
       <use xlink:href="#DejaVuSans-34" x="63.623047"/>
       <use xlink:href="#DejaVuSans-2e" x="127.246094"/>
       <use xlink:href="#DejaVuSans-30" x="159.033203"/>
      </g>
     </g>
    </g>
    <g id="ytick_6">
     <g id="line2d_7">
      <g>
       <use xlink:href="#m4251309b94" x="50.14375" y="110.016" style="stroke: #000000; stroke-width: 0.8"/>
      </g>
     </g>
     <g id="text_8">
      <!-- 24.5 -->
      <g transform="translate(20.878125 113.815219) scale(0.1 -0.1)">
       <use xlink:href="#DejaVuSans-32"/>
       <use xlink:href="#DejaVuSans-34" x="63.623047"/>
       <use xlink:href="#DejaVuSans-2e" x="127.246094"/>
       <use xlink:href="#DejaVuSans-35" x="159.033203"/>
      </g>
     </g>
    </g>
    <g id="ytick_7">
     <g id="line2d_8">
      <g>
       <use xlink:href="#m4251309b94" x="50.14375" y="79.776" style="stroke: #000000; stroke-width: 0.8"/>
      </g>
     </g>
     <g id="text_9">
      <!-- 25.0 -->
      <g transform="translate(20.878125 83.575219) scale(0.1 -0.1)">
       <use xlink:href="#DejaVuSans-32"/>
       <use xlink:href="#DejaVuSans-35" x="63.623047"/>
       <use xlink:href="#DejaVuSans-2e" x="127.246094"/>
       <use xlink:href="#DejaVuSans-30" x="159.033203"/>
      </g>
     </g>
    </g>
    <g id="ytick_8">
     <g id="line2d_9">
      <g>
       <use xlink:href="#m4251309b94" x="50.14375" y="49.536" style="stroke: #000000; stroke-width: 0.8"/>
      </g>
     </g>
     <g id="text_10">
      <!-- 25.5 -->
      <g transform="translate(20.878125 53.335219) scale(0.1 -0.1)">
       <use xlink:href="#DejaVuSans-32"/>
       <use xlink:href="#DejaVuSans-35" x="63.623047"/>
       <use xlink:href="#DejaVuSans-2e" x="127.246094"/>
       <use xlink:href="#DejaVuSans-35" x="159.033203"/>
      </g>
     </g>
    </g>
    <g id="ytick_9">
     <g id="line2d_10">
      <g>
       <use xlink:href="#m4251309b94" x="50.14375" y="19.296" style="stroke: #000000; stroke-width: 0.8"/>
      </g>
     </g>
     <g id="text_11">
      <!-- 26.0 -->
      <g transform="translate(20.878125 23.095219) scale(0.1 -0.1)">
       <defs>
        <path id="DejaVuSans-36" d="M 2113 2584 
Q 1688 2584 1439 2293 
Q 1191 2003 1191 1497 
Q 1191 994 1439 701 
Q 1688 409 2113 409 
Q 2538 409 2786 701 
Q 3034 994 3034 1497 
Q 3034 2003 2786 2293 
Q 2538 2584 2113 2584 
z
M 3366 4563 
L 3366 3988 
Q 3128 4100 2886 4159 
Q 2644 4219 2406 4219 
Q 1781 4219 1451 3797 
Q 1122 3375 1075 2522 
Q 1259 2794 1537 2939 
Q 1816 3084 2150 3084 
Q 2853 3084 3261 2657 
Q 3669 2231 3669 1497 
Q 3669 778 3244 343 
Q 2819 -91 2113 -91 
Q 1303 -91 875 529 
Q 447 1150 447 2328 
Q 447 3434 972 4092 
Q 1497 4750 2381 4750 
Q 2619 4750 2861 4703 
Q 3103 4656 3366 4563 
z
" transform="scale(0.015625)"/>
       </defs>
       <use xlink:href="#DejaVuSans-32"/>
       <use xlink:href="#DejaVuSans-36" x="63.623047"/>
       <use xlink:href="#DejaVuSans-2e" x="127.246094"/>
       <use xlink:href="#DejaVuSans-30" x="159.033203"/>
      </g>
     </g>
    </g>
    <g id="text_12">
     <!-- Time ms -->
     <g transform="translate(14.798438 161.553656) rotate(-90) scale(0.1 -0.1)">
      <defs>
       <path id="DejaVuSans-6d" d="M 3328 2828 
Q 3544 3216 3844 3400 
Q 4144 3584 4550 3584 
Q 5097 3584 5394 3201 
Q 5691 2819 5691 2113 
L 5691 0 
L 5113 0 
L 5113 2094 
Q 5113 2597 4934 2840 
Q 4756 3084 4391 3084 
Q 3944 3084 3684 2787 
Q 3425 2491 3425 1978 
L 3425 0 
L 2847 0 
L 2847 2094 
Q 2847 2600 2669 2842 
Q 2491 3084 2119 3084 
Q 1678 3084 1418 2786 
Q 1159 2488 1159 1978 
L 1159 0 
L 581 0 
L 581 3500 
L 1159 3500 
L 1159 2956 
Q 1356 3278 1631 3431 
Q 1906 3584 2284 3584 
Q 2666 3584 2933 3390 
Q 3200 3197 3328 2828 
z
" transform="scale(0.015625)"/>
      </defs>
      <use xlink:href="#DejaVuSans-54"/>
      <use xlink:href="#DejaVuSans-69" x="57.958984"/>
      <use xlink:href="#DejaVuSans-6d" x="85.742188"/>
      <use xlink:href="#DejaVuSans-65" x="183.154297"/>
      <use xlink:href="#DejaVuSans-20" x="244.677734"/>
      <use xlink:href="#DejaVuSans-6d" x="276.464844"/>
      <use xlink:href="#DejaVuSans-73" x="373.876953"/>
     </g>
    </g>
   </g>
   <g id="patch_3">
    <path d="M 50.14375 273.312 
L 50.14375 7.2 
" style="fill: none; stroke: #000000; stroke-width: 0.8; stroke-linejoin: miter; stroke-linecap: square"/>
   </g>
   <g id="patch_4">
    <path d="M 407.26375 273.312 
L 407.26375 7.2 
" style="fill: none; stroke: #000000; stroke-width: 0.8; stroke-linejoin: miter; stroke-linecap: square"/>
   </g>
   <g id="patch_5">
    <path d="M 50.14375 273.312 
L 407.26375 273.312 
" style="fill: none; stroke: #000000; stroke-width: 0.8; stroke-linejoin: miter; stroke-linecap: square"/>
   </g>
   <g id="patch_6">
    <path d="M 50.14375 7.2 
L 407.26375 7.2 
" style="fill: none; stroke: #000000; stroke-width: 0.8; stroke-linejoin: miter; stroke-linecap: square"/>
   </g>
  </g>
 </g>
 <defs>
  <clipPath id="p427c089f8b">
   <rect x="50.14375" y="7.2" width="357.12" height="266.112"/>
  </clipPath>
 </defs>
</svg>
