<?xml version="1.0" encoding="utf-8" standalone="no"?>
<!DOCTYPE svg PUBLIC "-//W3C//DTD SVG 1.1//EN"
  "http://www.w3.org/Graphics/SVG/1.1/DTD/svg11.dtd">
<svg xmlns:xlink="http://www.w3.org/1999/xlink" width="424.010625pt" height="310.86825pt" viewBox="0 0 424.010625 310.86825" xmlns="http://www.w3.org/2000/svg" version="1.1">
 <metadata>
  <rdf:RDF xmlns:dc="http://purl.org/dc/elements/1.1/" xmlns:cc="http://creativecommons.org/ns#" xmlns:rdf="http://www.w3.org/1999/02/22-rdf-syntax-ns#">
   <cc:Work>
    <dc:type rdf:resource="http://purl.org/dc/dcmitype/StillImage"/>
    <dc:date>2025-04-29T02:02:27.469883</dc:date>
    <dc:format>image/svg+xml</dc:format>
    <dc:creator>
     <cc:Agent>
      <dc:title>Matplotlib v3.6.3, https://matplotlib.org/</dc:title>
     </cc:Agent>
    </dc:creator>
   </cc:Work>
  </rdf:RDF>
 </metadata>
 <defs>
  <style type="text/css">*{stroke-linejoin: round; stroke-linecap: butt}</style>
 </defs>
 <g id="figure_1">
  <g id="patch_1">
   <path d="M 0 310.86825 
L 424.010625 310.86825 
L 424.010625 0 
L 0 0 
z
" style="fill: #ffffff"/>
  </g>
  <g id="axes_1">
   <g id="patch_2">
    <path d="M 59.690625 273.312 
L 416.810625 273.312 
L 416.810625 7.2 
L 59.690625 7.2 
z
" style="fill: #ffffff"/>
   </g>
   <g id="PathCollection_1">
    <defs>
     <path id="mf7ba94822c" d="M 0 0.707107 
C 0.187527 0.707107 0.367398 0.632602 0.5 0.5 
C 0.632602 0.367398 0.707107 0.187527 0.707107 0 
C 0.707107 -0.187527 0.632602 -0.367398 0.5 -0.5 
C 0.367398 -0.632602 0.187527 -0.707107 0 -0.707107 
C -0.187527 -0.707107 -0.367398 -0.632602 -0.5 -0.5 
C -0.632602 -0.367398 -0.707107 -0.187527 -0.707107 0 
C -0.707107 0.187527 -0.632602 0.367398 -0.5 0.5 
C -0.367398 0.632602 -0.187527 0.707107 0 0.707107 
z
" style="stroke: #ffffff; stroke-width: 0.113137"/>
    </defs>
    <g clip-path="url(#p1953264490)">
     <use xlink:href="#mf7ba94822c" x="75.923352" y="207.350182" style="fill: #1f77b4; stroke: #ffffff; stroke-width: 0.113137"/>
     <use xlink:href="#mf7ba94822c" x="79.202691" y="218.226201" style="fill: #1f77b4; stroke: #ffffff; stroke-width: 0.113137"/>
     <use xlink:href="#mf7ba94822c" x="82.48203" y="215.10244" style="fill: #1f77b4; stroke: #ffffff; stroke-width: 0.113137"/>
     <use xlink:href="#mf7ba94822c" x="85.761369" y="224.740384" style="fill: #1f77b4; stroke: #ffffff; stroke-width: 0.113137"/>
     <use xlink:href="#mf7ba94822c" x="89.040708" y="230.226012" style="fill: #1f77b4; stroke: #ffffff; stroke-width: 0.113137"/>
     <use xlink:href="#mf7ba94822c" x="92.320046" y="228.130807" style="fill: #1f77b4; stroke: #ffffff; stroke-width: 0.113137"/>
     <use xlink:href="#mf7ba94822c" x="95.599385" y="237.235425" style="fill: #1f77b4; stroke: #ffffff; stroke-width: 0.113137"/>
     <use xlink:href="#mf7ba94822c" x="98.878724" y="240.244902" style="fill: #1f77b4; stroke: #ffffff; stroke-width: 0.113137"/>
     <use xlink:href="#mf7ba94822c" x="102.158063" y="201.997885" style="fill: #1f77b4; stroke: #ffffff; stroke-width: 0.113137"/>
     <use xlink:href="#mf7ba94822c" x="105.437402" y="247.959066" style="fill: #1f77b4; stroke: #ffffff; stroke-width: 0.113137"/>
     <use xlink:href="#mf7ba94822c" x="108.716741" y="252.778038" style="fill: #1f77b4; stroke: #ffffff; stroke-width: 0.113137"/>
     <use xlink:href="#mf7ba94822c" x="111.99608" y="252.378044" style="fill: #1f77b4; stroke: #ffffff; stroke-width: 0.113137"/>
     <use xlink:href="#mf7ba94822c" x="115.275418" y="239.597293" style="fill: #1f77b4; stroke: #ffffff; stroke-width: 0.113137"/>
     <use xlink:href="#mf7ba94822c" x="118.554757" y="244.244839" style="fill: #1f77b4; stroke: #ffffff; stroke-width: 0.113137"/>
     <use xlink:href="#mf7ba94822c" x="121.834096" y="232.206933" style="fill: #1f77b4; stroke: #ffffff; stroke-width: 0.113137"/>
     <use xlink:href="#mf7ba94822c" x="125.113435" y="244.8734" style="fill: #1f77b4; stroke: #ffffff; stroke-width: 0.113137"/>
     <use xlink:href="#mf7ba94822c" x="128.392774" y="217.654781" style="fill: #1f77b4; stroke: #ffffff; stroke-width: 0.113137"/>
     <use xlink:href="#mf7ba94822c" x="131.672113" y="223.711829" style="fill: #1f77b4; stroke: #ffffff; stroke-width: 0.113137"/>
     <use xlink:href="#mf7ba94822c" x="134.951451" y="248.301918" style="fill: #1f77b4; stroke: #ffffff; stroke-width: 0.113137"/>
     <use xlink:href="#mf7ba94822c" x="138.23079" y="243.178189" style="fill: #1f77b4; stroke: #ffffff; stroke-width: 0.113137"/>
     <use xlink:href="#mf7ba94822c" x="141.510129" y="228.226043" style="fill: #1f77b4; stroke: #ffffff; stroke-width: 0.113137"/>
     <use xlink:href="#mf7ba94822c" x="144.789468" y="229.368882" style="fill: #1f77b4; stroke: #ffffff; stroke-width: 0.113137"/>
     <use xlink:href="#mf7ba94822c" x="148.068807" y="245.94005" style="fill: #1f77b4; stroke: #ffffff; stroke-width: 0.113137"/>
     <use xlink:href="#mf7ba94822c" x="151.348146" y="243.387709" style="fill: #1f77b4; stroke: #ffffff; stroke-width: 0.113137"/>
     <use xlink:href="#mf7ba94822c" x="154.627485" y="225.083236" style="fill: #1f77b4; stroke: #ffffff; stroke-width: 0.113137"/>
     <use xlink:href="#mf7ba94822c" x="157.906823" y="214.854825" style="fill: #1f77b4; stroke: #ffffff; stroke-width: 0.113137"/>
     <use xlink:href="#mf7ba94822c" x="161.186162" y="230.930763" style="fill: #1f77b4; stroke: #ffffff; stroke-width: 0.113137"/>
     <use xlink:href="#mf7ba94822c" x="164.465501" y="242.702006" style="fill: #1f77b4; stroke: #ffffff; stroke-width: 0.113137"/>
     <use xlink:href="#mf7ba94822c" x="167.74484" y="252.454233" style="fill: #1f77b4; stroke: #ffffff; stroke-width: 0.113137"/>
     <use xlink:href="#mf7ba94822c" x="171.024179" y="224.321343" style="fill: #1f77b4; stroke: #ffffff; stroke-width: 0.113137"/>
     <use xlink:href="#mf7ba94822c" x="174.303518" y="245.121015" style="fill: #1f77b4; stroke: #ffffff; stroke-width: 0.113137"/>
     <use xlink:href="#mf7ba94822c" x="177.582856" y="231.597419" style="fill: #1f77b4; stroke: #ffffff; stroke-width: 0.113137"/>
     <use xlink:href="#mf7ba94822c" x="180.862195" y="255.46371" style="fill: #1f77b4; stroke: #ffffff; stroke-width: 0.113137"/>
     <use xlink:href="#mf7ba94822c" x="184.141534" y="236.587816" style="fill: #1f77b4; stroke: #ffffff; stroke-width: 0.113137"/>
     <use xlink:href="#mf7ba94822c" x="187.420873" y="224.721337" style="fill: #1f77b4; stroke: #ffffff; stroke-width: 0.113137"/>
     <use xlink:href="#mf7ba94822c" x="190.700212" y="213.61675" style="fill: #1f77b4; stroke: #ffffff; stroke-width: 0.113137"/>
     <use xlink:href="#mf7ba94822c" x="193.979551" y="208.56921" style="fill: #1f77b4; stroke: #ffffff; stroke-width: 0.113137"/>
     <use xlink:href="#mf7ba94822c" x="197.258889" y="218.5881" style="fill: #1f77b4; stroke: #ffffff; stroke-width: 0.113137"/>
     <use xlink:href="#mf7ba94822c" x="200.538228" y="220.378548" style="fill: #1f77b4; stroke: #ffffff; stroke-width: 0.113137"/>
     <use xlink:href="#mf7ba94822c" x="203.817567" y="226.397501" style="fill: #1f77b4; stroke: #ffffff; stroke-width: 0.113137"/>
     <use xlink:href="#mf7ba94822c" x="207.096906" y="223.178504" style="fill: #1f77b4; stroke: #ffffff; stroke-width: 0.113137"/>
     <use xlink:href="#mf7ba94822c" x="210.376245" y="261.216" style="fill: #1f77b4; stroke: #ffffff; stroke-width: 0.113137"/>
     <use xlink:href="#mf7ba94822c" x="213.655584" y="255.939893" style="fill: #1f77b4; stroke: #ffffff; stroke-width: 0.113137"/>
     <use xlink:href="#mf7ba94822c" x="216.934923" y="212.131059" style="fill: #1f77b4; stroke: #ffffff; stroke-width: 0.113137"/>
     <use xlink:href="#mf7ba94822c" x="220.214261" y="234.759274" style="fill: #1f77b4; stroke: #ffffff; stroke-width: 0.113137"/>
     <use xlink:href="#mf7ba94822c" x="223.4936" y="229.349835" style="fill: #1f77b4; stroke: #ffffff; stroke-width: 0.113137"/>
     <use xlink:href="#mf7ba94822c" x="226.772939" y="233.502151" style="fill: #1f77b4; stroke: #ffffff; stroke-width: 0.113137"/>
     <use xlink:href="#mf7ba94822c" x="230.052278" y="225.292756" style="fill: #1f77b4; stroke: #ffffff; stroke-width: 0.113137"/>
     <use xlink:href="#mf7ba94822c" x="233.331617" y="250.625691" style="fill: #1f77b4; stroke: #ffffff; stroke-width: 0.113137"/>
     <use xlink:href="#mf7ba94822c" x="236.610956" y="233.825955" style="fill: #1f77b4; stroke: #ffffff; stroke-width: 0.113137"/>
     <use xlink:href="#mf7ba94822c" x="239.890294" y="241.787735" style="fill: #1f77b4; stroke: #ffffff; stroke-width: 0.113137"/>
     <use xlink:href="#mf7ba94822c" x="243.169633" y="65.180992" style="fill: #1f77b4; stroke: #ffffff; stroke-width: 0.113137"/>
     <use xlink:href="#mf7ba94822c" x="246.448972" y="19.296" style="fill: #1f77b4; stroke: #ffffff; stroke-width: 0.113137"/>
     <use xlink:href="#mf7ba94822c" x="249.728311" y="27.638726" style="fill: #1f77b4; stroke: #ffffff; stroke-width: 0.113137"/>
     <use xlink:href="#mf7ba94822c" x="253.00765" y="38.571887" style="fill: #1f77b4; stroke: #ffffff; stroke-width: 0.113137"/>
     <use xlink:href="#mf7ba94822c" x="256.286989" y="30.705344" style="fill: #1f77b4; stroke: #ffffff; stroke-width: 0.113137"/>
     <use xlink:href="#mf7ba94822c" x="259.566327" y="27.810152" style="fill: #1f77b4; stroke: #ffffff; stroke-width: 0.113137"/>
     <use xlink:href="#mf7ba94822c" x="262.845666" y="103.866097" style="fill: #1f77b4; stroke: #ffffff; stroke-width: 0.113137"/>
     <use xlink:href="#mf7ba94822c" x="266.125005" y="212.150106" style="fill: #1f77b4; stroke: #ffffff; stroke-width: 0.113137"/>
     <use xlink:href="#mf7ba94822c" x="269.404344" y="215.311961" style="fill: #1f77b4; stroke: #ffffff; stroke-width: 0.113137"/>
     <use xlink:href="#mf7ba94822c" x="272.683683" y="201.445513" style="fill: #1f77b4; stroke: #ffffff; stroke-width: 0.113137"/>
     <use xlink:href="#mf7ba94822c" x="275.963022" y="173.065007" style="fill: #1f77b4; stroke: #ffffff; stroke-width: 0.113137"/>
     <use xlink:href="#mf7ba94822c" x="279.242361" y="218.111917" style="fill: #1f77b4; stroke: #ffffff; stroke-width: 0.113137"/>
     <use xlink:href="#mf7ba94822c" x="282.521699" y="213.883412" style="fill: #1f77b4; stroke: #ffffff; stroke-width: 0.113137"/>
     <use xlink:href="#mf7ba94822c" x="285.801038" y="233.425961" style="fill: #1f77b4; stroke: #ffffff; stroke-width: 0.113137"/>
     <use xlink:href="#mf7ba94822c" x="289.080377" y="225.483229" style="fill: #1f77b4; stroke: #ffffff; stroke-width: 0.113137"/>
     <use xlink:href="#mf7ba94822c" x="292.359716" y="210.550131" style="fill: #1f77b4; stroke: #ffffff; stroke-width: 0.113137"/>
     <use xlink:href="#mf7ba94822c" x="295.639055" y="161.808042" style="fill: #1f77b4; stroke: #ffffff; stroke-width: 0.113137"/>
     <use xlink:href="#mf7ba94822c" x="298.918394" y="193.312307" style="fill: #1f77b4; stroke: #ffffff; stroke-width: 0.113137"/>
     <use xlink:href="#mf7ba94822c" x="302.197732" y="221.826144" style="fill: #1f77b4; stroke: #ffffff; stroke-width: 0.113137"/>
     <use xlink:href="#mf7ba94822c" x="305.477071" y="226.892731" style="fill: #1f77b4; stroke: #ffffff; stroke-width: 0.113137"/>
     <use xlink:href="#mf7ba94822c" x="308.75641" y="206.759715" style="fill: #1f77b4; stroke: #ffffff; stroke-width: 0.113137"/>
     <use xlink:href="#mf7ba94822c" x="312.035749" y="226.149886" style="fill: #1f77b4; stroke: #ffffff; stroke-width: 0.113137"/>
     <use xlink:href="#mf7ba94822c" x="315.315088" y="233.57834" style="fill: #1f77b4; stroke: #ffffff; stroke-width: 0.113137"/>
     <use xlink:href="#mf7ba94822c" x="318.594427" y="235.63545" style="fill: #1f77b4; stroke: #ffffff; stroke-width: 0.113137"/>
     <use xlink:href="#mf7ba94822c" x="321.873765" y="232.454548" style="fill: #1f77b4; stroke: #ffffff; stroke-width: 0.113137"/>
     <use xlink:href="#mf7ba94822c" x="325.153104" y="228.645084" style="fill: #1f77b4; stroke: #ffffff; stroke-width: 0.113137"/>
     <use xlink:href="#mf7ba94822c" x="328.432443" y="216.759557" style="fill: #1f77b4; stroke: #ffffff; stroke-width: 0.113137"/>
     <use xlink:href="#mf7ba94822c" x="331.711782" y="211.673923" style="fill: #1f77b4; stroke: #ffffff; stroke-width: 0.113137"/>
     <use xlink:href="#mf7ba94822c" x="334.991121" y="193.750396" style="fill: #1f77b4; stroke: #ffffff; stroke-width: 0.113137"/>
     <use xlink:href="#mf7ba94822c" x="338.27046" y="211.159645" style="fill: #1f77b4; stroke: #ffffff; stroke-width: 0.113137"/>
     <use xlink:href="#mf7ba94822c" x="341.549799" y="137.998893" style="fill: #1f77b4; stroke: #ffffff; stroke-width: 0.113137"/>
     <use xlink:href="#mf7ba94822c" x="344.829137" y="229.864113" style="fill: #1f77b4; stroke: #ffffff; stroke-width: 0.113137"/>
     <use xlink:href="#mf7ba94822c" x="348.108476" y="213.007235" style="fill: #1f77b4; stroke: #ffffff; stroke-width: 0.113137"/>
     <use xlink:href="#mf7ba94822c" x="351.387815" y="232.892636" style="fill: #1f77b4; stroke: #ffffff; stroke-width: 0.113137"/>
     <use xlink:href="#mf7ba94822c" x="354.667154" y="230.702195" style="fill: #1f77b4; stroke: #ffffff; stroke-width: 0.113137"/>
     <use xlink:href="#mf7ba94822c" x="357.946493" y="211.159645" style="fill: #1f77b4; stroke: #ffffff; stroke-width: 0.113137"/>
     <use xlink:href="#mf7ba94822c" x="361.225832" y="211.178693" style="fill: #1f77b4; stroke: #ffffff; stroke-width: 0.113137"/>
     <use xlink:href="#mf7ba94822c" x="364.50517" y="41.790884" style="fill: #1f77b4; stroke: #ffffff; stroke-width: 0.113137"/>
     <use xlink:href="#mf7ba94822c" x="367.784509" y="132.646596" style="fill: #1f77b4; stroke: #ffffff; stroke-width: 0.113137"/>
     <use xlink:href="#mf7ba94822c" x="371.063848" y="236.625911" style="fill: #1f77b4; stroke: #ffffff; stroke-width: 0.113137"/>
     <use xlink:href="#mf7ba94822c" x="374.343187" y="242.302012" style="fill: #1f77b4; stroke: #ffffff; stroke-width: 0.113137"/>
     <use xlink:href="#mf7ba94822c" x="377.622526" y="231.406946" style="fill: #1f77b4; stroke: #ffffff; stroke-width: 0.113137"/>
     <use xlink:href="#mf7ba94822c" x="380.901865" y="229.10222" style="fill: #1f77b4; stroke: #ffffff; stroke-width: 0.113137"/>
     <use xlink:href="#mf7ba94822c" x="384.181204" y="228.130807" style="fill: #1f77b4; stroke: #ffffff; stroke-width: 0.113137"/>
     <use xlink:href="#mf7ba94822c" x="387.460542" y="224.797526" style="fill: #1f77b4; stroke: #ffffff; stroke-width: 0.113137"/>
     <use xlink:href="#mf7ba94822c" x="390.739881" y="235.502119" style="fill: #1f77b4; stroke: #ffffff; stroke-width: 0.113137"/>
     <use xlink:href="#mf7ba94822c" x="394.01922" y="234.187854" style="fill: #1f77b4; stroke: #ffffff; stroke-width: 0.113137"/>
     <use xlink:href="#mf7ba94822c" x="397.298559" y="228.759368" style="fill: #1f77b4; stroke: #ffffff; stroke-width: 0.113137"/>
     <use xlink:href="#mf7ba94822c" x="400.577898" y="235.692592" style="fill: #1f77b4; stroke: #ffffff; stroke-width: 0.113137"/>
    </g>
   </g>
   <g id="matplotlib.axis_1">
    <g id="xtick_1">
     <g id="line2d_1">
      <defs>
       <path id="mee4fd39924" d="M 0 0 
L 0 3.5 
" style="stroke: #000000; stroke-width: 0.8"/>
      </defs>
      <g>
       <use xlink:href="#mee4fd39924" x="75.923352" y="273.312" style="stroke: #000000; stroke-width: 0.8"/>
      </g>
     </g>
     <g id="text_1">
      <!-- 0 -->
      <g transform="translate(72.742102 287.910438) scale(0.1 -0.1)">
       <defs>
        <path id="DejaVuSans-30" d="M 2034 4250 
Q 1547 4250 1301 3770 
Q 1056 3291 1056 2328 
Q 1056 1369 1301 889 
Q 1547 409 2034 409 
Q 2525 409 2770 889 
Q 3016 1369 3016 2328 
Q 3016 3291 2770 3770 
Q 2525 4250 2034 4250 
z
M 2034 4750 
Q 2819 4750 3233 4129 
Q 3647 3509 3647 2328 
Q 3647 1150 3233 529 
Q 2819 -91 2034 -91 
Q 1250 -91 836 529 
Q 422 1150 422 2328 
Q 422 3509 836 4129 
Q 1250 4750 2034 4750 
z
" transform="scale(0.015625)"/>
       </defs>
       <use xlink:href="#DejaVuSans-30"/>
      </g>
     </g>
    </g>
    <g id="text_2">
     <!-- Test index -->
     <g transform="translate(213.135781 301.588562) scale(0.1 -0.1)">
      <defs>
       <path id="DejaVuSans-54" d="M -19 4666 
L 3928 4666 
L 3928 4134 
L 2272 4134 
L 2272 0 
L 1638 0 
L 1638 4134 
L -19 4134 
L -19 4666 
z
" transform="scale(0.015625)"/>
       <path id="DejaVuSans-65" d="M 3597 1894 
L 3597 1613 
L 953 1613 
Q 991 1019 1311 708 
Q 1631 397 2203 397 
Q 2534 397 2845 478 
Q 3156 559 3463 722 
L 3463 178 
Q 3153 47 2828 -22 
Q 2503 -91 2169 -91 
Q 1331 -91 842 396 
Q 353 884 353 1716 
Q 353 2575 817 3079 
Q 1281 3584 2069 3584 
Q 2775 3584 3186 3129 
Q 3597 2675 3597 1894 
z
M 3022 2063 
Q 3016 2534 2758 2815 
Q 2500 3097 2075 3097 
Q 1594 3097 1305 2825 
Q 1016 2553 972 2059 
L 3022 2063 
z
" transform="scale(0.015625)"/>
       <path id="DejaVuSans-73" d="M 2834 3397 
L 2834 2853 
Q 2591 2978 2328 3040 
Q 2066 3103 1784 3103 
Q 1356 3103 1142 2972 
Q 928 2841 928 2578 
Q 928 2378 1081 2264 
Q 1234 2150 1697 2047 
L 1894 2003 
Q 2506 1872 2764 1633 
Q 3022 1394 3022 966 
Q 3022 478 2636 193 
Q 2250 -91 1575 -91 
Q 1294 -91 989 -36 
Q 684 19 347 128 
L 347 722 
Q 666 556 975 473 
Q 1284 391 1588 391 
Q 1994 391 2212 530 
Q 2431 669 2431 922 
Q 2431 1156 2273 1281 
Q 2116 1406 1581 1522 
L 1381 1569 
Q 847 1681 609 1914 
Q 372 2147 372 2553 
Q 372 3047 722 3315 
Q 1072 3584 1716 3584 
Q 2034 3584 2315 3537 
Q 2597 3491 2834 3397 
z
" transform="scale(0.015625)"/>
       <path id="DejaVuSans-74" d="M 1172 4494 
L 1172 3500 
L 2356 3500 
L 2356 3053 
L 1172 3053 
L 1172 1153 
Q 1172 725 1289 603 
Q 1406 481 1766 481 
L 2356 481 
L 2356 0 
L 1766 0 
Q 1100 0 847 248 
Q 594 497 594 1153 
L 594 3053 
L 172 3053 
L 172 3500 
L 594 3500 
L 594 4494 
L 1172 4494 
z
" transform="scale(0.015625)"/>
       <path id="DejaVuSans-20" transform="scale(0.015625)"/>
       <path id="DejaVuSans-69" d="M 603 3500 
L 1178 3500 
L 1178 0 
L 603 0 
L 603 3500 
z
M 603 4863 
L 1178 4863 
L 1178 4134 
L 603 4134 
L 603 4863 
z
" transform="scale(0.015625)"/>
       <path id="DejaVuSans-6e" d="M 3513 2113 
L 3513 0 
L 2938 0 
L 2938 2094 
Q 2938 2591 2744 2837 
Q 2550 3084 2163 3084 
Q 1697 3084 1428 2787 
Q 1159 2491 1159 1978 
L 1159 0 
L 581 0 
L 581 3500 
L 1159 3500 
L 1159 2956 
Q 1366 3272 1645 3428 
Q 1925 3584 2291 3584 
Q 2894 3584 3203 3211 
Q 3513 2838 3513 2113 
z
" transform="scale(0.015625)"/>
       <path id="DejaVuSans-64" d="M 2906 2969 
L 2906 4863 
L 3481 4863 
L 3481 0 
L 2906 0 
L 2906 525 
Q 2725 213 2448 61 
Q 2172 -91 1784 -91 
Q 1150 -91 751 415 
Q 353 922 353 1747 
Q 353 2572 751 3078 
Q 1150 3584 1784 3584 
Q 2172 3584 2448 3432 
Q 2725 3281 2906 2969 
z
M 947 1747 
Q 947 1113 1208 752 
Q 1469 391 1925 391 
Q 2381 391 2643 752 
Q 2906 1113 2906 1747 
Q 2906 2381 2643 2742 
Q 2381 3103 1925 3103 
Q 1469 3103 1208 2742 
Q 947 2381 947 1747 
z
" transform="scale(0.015625)"/>
       <path id="DejaVuSans-78" d="M 3513 3500 
L 2247 1797 
L 3578 0 
L 2900 0 
L 1881 1375 
L 863 0 
L 184 0 
L 1544 1831 
L 300 3500 
L 978 3500 
L 1906 2253 
L 2834 3500 
L 3513 3500 
z
" transform="scale(0.015625)"/>
      </defs>
      <use xlink:href="#DejaVuSans-54"/>
      <use xlink:href="#DejaVuSans-65" x="44.083984"/>
      <use xlink:href="#DejaVuSans-73" x="105.607422"/>
      <use xlink:href="#DejaVuSans-74" x="157.707031"/>
      <use xlink:href="#DejaVuSans-20" x="196.916016"/>
      <use xlink:href="#DejaVuSans-69" x="228.703125"/>
      <use xlink:href="#DejaVuSans-6e" x="256.486328"/>
      <use xlink:href="#DejaVuSans-64" x="319.865234"/>
      <use xlink:href="#DejaVuSans-65" x="383.341797"/>
      <use xlink:href="#DejaVuSans-78" x="443.115234"/>
     </g>
    </g>
   </g>
   <g id="matplotlib.axis_2">
    <g id="ytick_1">
     <g id="line2d_2">
      <defs>
       <path id="m49f519d64f" d="M 0 0 
L -3.5 0 
" style="stroke: #000000; stroke-width: 0.8"/>
      </defs>
      <g>
       <use xlink:href="#m49f519d64f" x="59.690625" y="257.749388" style="stroke: #000000; stroke-width: 0.8"/>
      </g>
     </g>
     <g id="text_3">
      <!-- 56000 -->
      <g transform="translate(20.878125 261.548607) scale(0.1 -0.1)">
       <defs>
        <path id="DejaVuSans-35" d="M 691 4666 
L 3169 4666 
L 3169 4134 
L 1269 4134 
L 1269 2991 
Q 1406 3038 1543 3061 
Q 1681 3084 1819 3084 
Q 2600 3084 3056 2656 
Q 3513 2228 3513 1497 
Q 3513 744 3044 326 
Q 2575 -91 1722 -91 
Q 1428 -91 1123 -41 
Q 819 9 494 109 
L 494 744 
Q 775 591 1075 516 
Q 1375 441 1709 441 
Q 2250 441 2565 725 
Q 2881 1009 2881 1497 
Q 2881 1984 2565 2268 
Q 2250 2553 1709 2553 
Q 1456 2553 1204 2497 
Q 953 2441 691 2322 
L 691 4666 
z
" transform="scale(0.015625)"/>
        <path id="DejaVuSans-36" d="M 2113 2584 
Q 1688 2584 1439 2293 
Q 1191 2003 1191 1497 
Q 1191 994 1439 701 
Q 1688 409 2113 409 
Q 2538 409 2786 701 
Q 3034 994 3034 1497 
Q 3034 2003 2786 2293 
Q 2538 2584 2113 2584 
z
M 3366 4563 
L 3366 3988 
Q 3128 4100 2886 4159 
Q 2644 4219 2406 4219 
Q 1781 4219 1451 3797 
Q 1122 3375 1075 2522 
Q 1259 2794 1537 2939 
Q 1816 3084 2150 3084 
Q 2853 3084 3261 2657 
Q 3669 2231 3669 1497 
Q 3669 778 3244 343 
Q 2819 -91 2113 -91 
Q 1303 -91 875 529 
Q 447 1150 447 2328 
Q 447 3434 972 4092 
Q 1497 4750 2381 4750 
Q 2619 4750 2861 4703 
Q 3103 4656 3366 4563 
z
" transform="scale(0.015625)"/>
       </defs>
       <use xlink:href="#DejaVuSans-35"/>
       <use xlink:href="#DejaVuSans-36" x="63.623047"/>
       <use xlink:href="#DejaVuSans-30" x="127.246094"/>
       <use xlink:href="#DejaVuSans-30" x="190.869141"/>
       <use xlink:href="#DejaVuSans-30" x="254.492188"/>
      </g>
     </g>
    </g>
    <g id="ytick_2">
     <g id="line2d_3">
      <g>
       <use xlink:href="#m49f519d64f" x="59.690625" y="219.65475" style="stroke: #000000; stroke-width: 0.8"/>
      </g>
     </g>
     <g id="text_4">
      <!-- 58000 -->
      <g transform="translate(20.878125 223.453968) scale(0.1 -0.1)">
       <defs>
        <path id="DejaVuSans-38" d="M 2034 2216 
Q 1584 2216 1326 1975 
Q 1069 1734 1069 1313 
Q 1069 891 1326 650 
Q 1584 409 2034 409 
Q 2484 409 2743 651 
Q 3003 894 3003 1313 
Q 3003 1734 2745 1975 
Q 2488 2216 2034 2216 
z
M 1403 2484 
Q 997 2584 770 2862 
Q 544 3141 544 3541 
Q 544 4100 942 4425 
Q 1341 4750 2034 4750 
Q 2731 4750 3128 4425 
Q 3525 4100 3525 3541 
Q 3525 3141 3298 2862 
Q 3072 2584 2669 2484 
Q 3125 2378 3379 2068 
Q 3634 1759 3634 1313 
Q 3634 634 3220 271 
Q 2806 -91 2034 -91 
Q 1263 -91 848 271 
Q 434 634 434 1313 
Q 434 1759 690 2068 
Q 947 2378 1403 2484 
z
M 1172 3481 
Q 1172 3119 1398 2916 
Q 1625 2713 2034 2713 
Q 2441 2713 2670 2916 
Q 2900 3119 2900 3481 
Q 2900 3844 2670 4047 
Q 2441 4250 2034 4250 
Q 1625 4250 1398 4047 
Q 1172 3844 1172 3481 
z
" transform="scale(0.015625)"/>
       </defs>
       <use xlink:href="#DejaVuSans-35"/>
       <use xlink:href="#DejaVuSans-38" x="63.623047"/>
       <use xlink:href="#DejaVuSans-30" x="127.246094"/>
       <use xlink:href="#DejaVuSans-30" x="190.869141"/>
       <use xlink:href="#DejaVuSans-30" x="254.492188"/>
      </g>
     </g>
    </g>
    <g id="ytick_3">
     <g id="line2d_4">
      <g>
       <use xlink:href="#m49f519d64f" x="59.690625" y="181.560111" style="stroke: #000000; stroke-width: 0.8"/>
      </g>
     </g>
     <g id="text_5">
      <!-- 60000 -->
      <g transform="translate(20.878125 185.35933) scale(0.1 -0.1)">
       <use xlink:href="#DejaVuSans-36"/>
       <use xlink:href="#DejaVuSans-30" x="63.623047"/>
       <use xlink:href="#DejaVuSans-30" x="127.246094"/>
       <use xlink:href="#DejaVuSans-30" x="190.869141"/>
       <use xlink:href="#DejaVuSans-30" x="254.492188"/>
      </g>
     </g>
    </g>
    <g id="ytick_4">
     <g id="line2d_5">
      <g>
       <use xlink:href="#m49f519d64f" x="59.690625" y="143.465473" style="stroke: #000000; stroke-width: 0.8"/>
      </g>
     </g>
     <g id="text_6">
      <!-- 62000 -->
      <g transform="translate(20.878125 147.264692) scale(0.1 -0.1)">
       <defs>
        <path id="DejaVuSans-32" d="M 1228 531 
L 3431 531 
L 3431 0 
L 469 0 
L 469 531 
Q 828 903 1448 1529 
Q 2069 2156 2228 2338 
Q 2531 2678 2651 2914 
Q 2772 3150 2772 3378 
Q 2772 3750 2511 3984 
Q 2250 4219 1831 4219 
Q 1534 4219 1204 4116 
Q 875 4013 500 3803 
L 500 4441 
Q 881 4594 1212 4672 
Q 1544 4750 1819 4750 
Q 2544 4750 2975 4387 
Q 3406 4025 3406 3419 
Q 3406 3131 3298 2873 
Q 3191 2616 2906 2266 
Q 2828 2175 2409 1742 
Q 1991 1309 1228 531 
z
" transform="scale(0.015625)"/>
       </defs>
       <use xlink:href="#DejaVuSans-36"/>
       <use xlink:href="#DejaVuSans-32" x="63.623047"/>
       <use xlink:href="#DejaVuSans-30" x="127.246094"/>
       <use xlink:href="#DejaVuSans-30" x="190.869141"/>
       <use xlink:href="#DejaVuSans-30" x="254.492188"/>
      </g>
     </g>
    </g>
    <g id="ytick_5">
     <g id="line2d_6">
      <g>
       <use xlink:href="#m49f519d64f" x="59.690625" y="105.370835" style="stroke: #000000; stroke-width: 0.8"/>
      </g>
     </g>
     <g id="text_7">
      <!-- 64000 -->
      <g transform="translate(20.878125 109.170054) scale(0.1 -0.1)">
       <defs>
        <path id="DejaVuSans-34" d="M 2419 4116 
L 825 1625 
L 2419 1625 
L 2419 4116 
z
M 2253 4666 
L 3047 4666 
L 3047 1625 
L 3713 1625 
L 3713 1100 
L 3047 1100 
L 3047 0 
L 2419 0 
L 2419 1100 
L 313 1100 
L 313 1709 
L 2253 4666 
z
" transform="scale(0.015625)"/>
       </defs>
       <use xlink:href="#DejaVuSans-36"/>
       <use xlink:href="#DejaVuSans-34" x="63.623047"/>
       <use xlink:href="#DejaVuSans-30" x="127.246094"/>
       <use xlink:href="#DejaVuSans-30" x="190.869141"/>
       <use xlink:href="#DejaVuSans-30" x="254.492188"/>
      </g>
     </g>
    </g>
    <g id="ytick_6">
     <g id="line2d_7">
      <g>
       <use xlink:href="#m49f519d64f" x="59.690625" y="67.276197" style="stroke: #000000; stroke-width: 0.8"/>
      </g>
     </g>
     <g id="text_8">
      <!-- 66000 -->
      <g transform="translate(20.878125 71.075416) scale(0.1 -0.1)">
       <use xlink:href="#DejaVuSans-36"/>
       <use xlink:href="#DejaVuSans-36" x="63.623047"/>
       <use xlink:href="#DejaVuSans-30" x="127.246094"/>
       <use xlink:href="#DejaVuSans-30" x="190.869141"/>
       <use xlink:href="#DejaVuSans-30" x="254.492188"/>
      </g>
     </g>
    </g>
    <g id="ytick_7">
     <g id="line2d_8">
      <g>
       <use xlink:href="#m49f519d64f" x="59.690625" y="29.181559" style="stroke: #000000; stroke-width: 0.8"/>
      </g>
     </g>
     <g id="text_9">
      <!-- 68000 -->
      <g transform="translate(20.878125 32.980777) scale(0.1 -0.1)">
       <use xlink:href="#DejaVuSans-36"/>
       <use xlink:href="#DejaVuSans-38" x="63.623047"/>
       <use xlink:href="#DejaVuSans-30" x="127.246094"/>
       <use xlink:href="#DejaVuSans-30" x="190.869141"/>
       <use xlink:href="#DejaVuSans-30" x="254.492188"/>
      </g>
     </g>
    </g>
    <g id="text_10">
     <!-- Time ms -->
     <g transform="translate(14.798438 161.553656) rotate(-90) scale(0.1 -0.1)">
      <defs>
       <path id="DejaVuSans-6d" d="M 3328 2828 
Q 3544 3216 3844 3400 
Q 4144 3584 4550 3584 
Q 5097 3584 5394 3201 
Q 5691 2819 5691 2113 
L 5691 0 
L 5113 0 
L 5113 2094 
Q 5113 2597 4934 2840 
Q 4756 3084 4391 3084 
Q 3944 3084 3684 2787 
Q 3425 2491 3425 1978 
L 3425 0 
L 2847 0 
L 2847 2094 
Q 2847 2600 2669 2842 
Q 2491 3084 2119 3084 
Q 1678 3084 1418 2786 
Q 1159 2488 1159 1978 
L 1159 0 
L 581 0 
L 581 3500 
L 1159 3500 
L 1159 2956 
Q 1356 3278 1631 3431 
Q 1906 3584 2284 3584 
Q 2666 3584 2933 3390 
Q 3200 3197 3328 2828 
z
" transform="scale(0.015625)"/>
      </defs>
      <use xlink:href="#DejaVuSans-54"/>
      <use xlink:href="#DejaVuSans-69" x="57.958984"/>
      <use xlink:href="#DejaVuSans-6d" x="85.742188"/>
      <use xlink:href="#DejaVuSans-65" x="183.154297"/>
      <use xlink:href="#DejaVuSans-20" x="244.677734"/>
      <use xlink:href="#DejaVuSans-6d" x="276.464844"/>
      <use xlink:href="#DejaVuSans-73" x="373.876953"/>
     </g>
    </g>
   </g>
   <g id="patch_3">
    <path d="M 59.690625 273.312 
L 59.690625 7.2 
" style="fill: none; stroke: #000000; stroke-width: 0.8; stroke-linejoin: miter; stroke-linecap: square"/>
   </g>
   <g id="patch_4">
    <path d="M 416.810625 273.312 
L 416.810625 7.2 
" style="fill: none; stroke: #000000; stroke-width: 0.8; stroke-linejoin: miter; stroke-linecap: square"/>
   </g>
   <g id="patch_5">
    <path d="M 59.690625 273.312 
L 416.810625 273.312 
" style="fill: none; stroke: #000000; stroke-width: 0.8; stroke-linejoin: miter; stroke-linecap: square"/>
   </g>
   <g id="patch_6">
    <path d="M 59.690625 7.2 
L 416.810625 7.2 
" style="fill: none; stroke: #000000; stroke-width: 0.8; stroke-linejoin: miter; stroke-linecap: square"/>
   </g>
  </g>
 </g>
 <defs>
  <clipPath id="p1953264490">
   <rect x="59.690625" y="7.2" width="357.12" height="266.112"/>
  </clipPath>
 </defs>
</svg>
