<?xml version="1.0" encoding="utf-8" standalone="no"?>
<!DOCTYPE svg PUBLIC "-//W3C//DTD SVG 1.1//EN"
  "http://www.w3.org/Graphics/SVG/1.1/DTD/svg11.dtd">
<svg xmlns:xlink="http://www.w3.org/1999/xlink" width="430.373125pt" height="313.626449pt" viewBox="0 0 430.373125 313.626449" xmlns="http://www.w3.org/2000/svg" version="1.1">
 <metadata>
  <rdf:RDF xmlns:dc="http://purl.org/dc/elements/1.1/" xmlns:cc="http://creativecommons.org/ns#" xmlns:rdf="http://www.w3.org/1999/02/22-rdf-syntax-ns#">
   <cc:Work>
    <dc:type rdf:resource="http://purl.org/dc/dcmitype/StillImage"/>
    <dc:date>2025-04-29T01:28:10.563178</dc:date>
    <dc:format>image/svg+xml</dc:format>
    <dc:creator>
     <cc:Agent>
      <dc:title>Matplotlib v3.6.3, https://matplotlib.org/</dc:title>
     </cc:Agent>
    </dc:creator>
   </cc:Work>
  </rdf:RDF>
 </metadata>
 <defs>
  <style type="text/css">*{stroke-linejoin: round; stroke-linecap: butt}</style>
 </defs>
 <g id="figure_1">
  <g id="patch_1">
   <path d="M 0 313.626449 
L 430.373125 313.626449 
L 430.373125 0 
L 0 0 
z
" style="fill: #ffffff"/>
  </g>
  <g id="axes_1">
   <g id="patch_2">
    <path d="M 66.053125 276.070199 
L 423.173125 276.070199 
L 423.173125 9.958199 
L 66.053125 9.958199 
z
" style="fill: #ffffff"/>
   </g>
   <g id="PathCollection_1">
    <defs>
     <path id="m837a4837f3" d="M 0 0.707107 
C 0.187527 0.707107 0.367398 0.632602 0.5 0.5 
C 0.632602 0.367398 0.707107 0.187527 0.707107 0 
C 0.707107 -0.187527 0.632602 -0.367398 0.5 -0.5 
C 0.367398 -0.632602 0.187527 -0.707107 0 -0.707107 
C -0.187527 -0.707107 -0.367398 -0.632602 -0.5 -0.5 
C -0.632602 -0.367398 -0.707107 -0.187527 -0.707107 0 
C -0.707107 0.187527 -0.632602 0.367398 -0.5 0.5 
C -0.367398 0.632602 -0.187527 0.707107 0 0.707107 
z
" style="stroke: #ffffff; stroke-width: 0.113137"/>
    </defs>
    <g clip-path="url(#p6a44aef962)">
     <use xlink:href="#m837a4837f3" x="82.285852" y="224.868447" style="fill: #1f77b4; stroke: #ffffff; stroke-width: 0.113137"/>
     <use xlink:href="#m837a4837f3" x="85.565191" y="224.262241" style="fill: #1f77b4; stroke: #ffffff; stroke-width: 0.113137"/>
     <use xlink:href="#m837a4837f3" x="88.84453" y="225.40852" style="fill: #1f77b4; stroke: #ffffff; stroke-width: 0.113137"/>
     <use xlink:href="#m837a4837f3" x="92.123869" y="256.236815" style="fill: #1f77b4; stroke: #ffffff; stroke-width: 0.113137"/>
     <use xlink:href="#m837a4837f3" x="95.403208" y="250.428266" style="fill: #1f77b4; stroke: #ffffff; stroke-width: 0.113137"/>
     <use xlink:href="#m837a4837f3" x="98.682546" y="218.49778" style="fill: #1f77b4; stroke: #ffffff; stroke-width: 0.113137"/>
     <use xlink:href="#m837a4837f3" x="101.961885" y="106.217538" style="fill: #1f77b4; stroke: #ffffff; stroke-width: 0.113137"/>
     <use xlink:href="#m837a4837f3" x="105.241224" y="187.614376" style="fill: #1f77b4; stroke: #ffffff; stroke-width: 0.113137"/>
     <use xlink:href="#m837a4837f3" x="108.520563" y="246.261982" style="fill: #1f77b4; stroke: #ffffff; stroke-width: 0.113137"/>
     <use xlink:href="#m837a4837f3" x="111.799902" y="227.447574" style="fill: #1f77b4; stroke: #ffffff; stroke-width: 0.113137"/>
     <use xlink:href="#m837a4837f3" x="115.079241" y="200.752498" style="fill: #1f77b4; stroke: #ffffff; stroke-width: 0.113137"/>
     <use xlink:href="#m837a4837f3" x="118.35858" y="234.347293" style="fill: #1f77b4; stroke: #ffffff; stroke-width: 0.113137"/>
     <use xlink:href="#m837a4837f3" x="121.637918" y="258.386088" style="fill: #1f77b4; stroke: #ffffff; stroke-width: 0.113137"/>
     <use xlink:href="#m837a4837f3" x="124.917257" y="250.891186" style="fill: #1f77b4; stroke: #ffffff; stroke-width: 0.113137"/>
     <use xlink:href="#m837a4837f3" x="128.196596" y="247.937313" style="fill: #1f77b4; stroke: #ffffff; stroke-width: 0.113137"/>
     <use xlink:href="#m837a4837f3" x="131.475935" y="244.906287" style="fill: #1f77b4; stroke: #ffffff; stroke-width: 0.113137"/>
     <use xlink:href="#m837a4837f3" x="134.755274" y="258.16565" style="fill: #1f77b4; stroke: #ffffff; stroke-width: 0.113137"/>
     <use xlink:href="#m837a4837f3" x="138.034613" y="210.870615" style="fill: #1f77b4; stroke: #ffffff; stroke-width: 0.113137"/>
     <use xlink:href="#m837a4837f3" x="141.313951" y="232.385392" style="fill: #1f77b4; stroke: #ffffff; stroke-width: 0.113137"/>
     <use xlink:href="#m837a4837f3" x="144.59329" y="263.974199" style="fill: #1f77b4; stroke: #ffffff; stroke-width: 0.113137"/>
     <use xlink:href="#m837a4837f3" x="147.872629" y="261.262808" style="fill: #1f77b4; stroke: #ffffff; stroke-width: 0.113137"/>
     <use xlink:href="#m837a4837f3" x="151.151968" y="237.246056" style="fill: #1f77b4; stroke: #ffffff; stroke-width: 0.113137"/>
     <use xlink:href="#m837a4837f3" x="154.431307" y="241.224968" style="fill: #1f77b4; stroke: #ffffff; stroke-width: 0.113137"/>
     <use xlink:href="#m837a4837f3" x="157.710646" y="245.27001" style="fill: #1f77b4; stroke: #ffffff; stroke-width: 0.113137"/>
     <use xlink:href="#m837a4837f3" x="160.989985" y="256.391122" style="fill: #1f77b4; stroke: #ffffff; stroke-width: 0.113137"/>
     <use xlink:href="#m837a4837f3" x="164.269323" y="257.383094" style="fill: #1f77b4; stroke: #ffffff; stroke-width: 0.113137"/>
     <use xlink:href="#m837a4837f3" x="167.548662" y="248.797023" style="fill: #1f77b4; stroke: #ffffff; stroke-width: 0.113137"/>
     <use xlink:href="#m837a4837f3" x="170.828001" y="242.801101" style="fill: #1f77b4; stroke: #ffffff; stroke-width: 0.113137"/>
     <use xlink:href="#m837a4837f3" x="174.10734" y="247.57359" style="fill: #1f77b4; stroke: #ffffff; stroke-width: 0.113137"/>
     <use xlink:href="#m837a4837f3" x="177.386679" y="245.721909" style="fill: #1f77b4; stroke: #ffffff; stroke-width: 0.113137"/>
     <use xlink:href="#m837a4837f3" x="180.666018" y="238.623796" style="fill: #1f77b4; stroke: #ffffff; stroke-width: 0.113137"/>
     <use xlink:href="#m837a4837f3" x="183.945356" y="232.220063" style="fill: #1f77b4; stroke: #ffffff; stroke-width: 0.113137"/>
     <use xlink:href="#m837a4837f3" x="187.224695" y="193.290662" style="fill: #1f77b4; stroke: #ffffff; stroke-width: 0.113137"/>
     <use xlink:href="#m837a4837f3" x="190.504034" y="205.172285" style="fill: #1f77b4; stroke: #ffffff; stroke-width: 0.113137"/>
     <use xlink:href="#m837a4837f3" x="193.783373" y="200.454906" style="fill: #1f77b4; stroke: #ffffff; stroke-width: 0.113137"/>
     <use xlink:href="#m837a4837f3" x="197.062712" y="232.903422" style="fill: #1f77b4; stroke: #ffffff; stroke-width: 0.113137"/>
     <use xlink:href="#m837a4837f3" x="200.342051" y="213.185217" style="fill: #1f77b4; stroke: #ffffff; stroke-width: 0.113137"/>
     <use xlink:href="#m837a4837f3" x="203.621389" y="215.643104" style="fill: #1f77b4; stroke: #ffffff; stroke-width: 0.113137"/>
     <use xlink:href="#m837a4837f3" x="206.900728" y="230.423491" style="fill: #1f77b4; stroke: #ffffff; stroke-width: 0.113137"/>
     <use xlink:href="#m837a4837f3" x="210.180067" y="254.53944" style="fill: #1f77b4; stroke: #ffffff; stroke-width: 0.113137"/>
     <use xlink:href="#m837a4837f3" x="213.459406" y="239.836206" style="fill: #1f77b4; stroke: #ffffff; stroke-width: 0.113137"/>
     <use xlink:href="#m837a4837f3" x="216.738745" y="234.137877" style="fill: #1f77b4; stroke: #ffffff; stroke-width: 0.113137"/>
     <use xlink:href="#m837a4837f3" x="220.018084" y="259.466236" style="fill: #1f77b4; stroke: #ffffff; stroke-width: 0.113137"/>
     <use xlink:href="#m837a4837f3" x="223.297423" y="243.407307" style="fill: #1f77b4; stroke: #ffffff; stroke-width: 0.113137"/>
     <use xlink:href="#m837a4837f3" x="226.576761" y="244.300082" style="fill: #1f77b4; stroke: #ffffff; stroke-width: 0.113137"/>
     <use xlink:href="#m837a4837f3" x="229.8561" y="245.137747" style="fill: #1f77b4; stroke: #ffffff; stroke-width: 0.113137"/>
     <use xlink:href="#m837a4837f3" x="233.135439" y="227.568816" style="fill: #1f77b4; stroke: #ffffff; stroke-width: 0.113137"/>
     <use xlink:href="#m837a4837f3" x="236.414778" y="231.349332" style="fill: #1f77b4; stroke: #ffffff; stroke-width: 0.113137"/>
     <use xlink:href="#m837a4837f3" x="239.694117" y="224.791293" style="fill: #1f77b4; stroke: #ffffff; stroke-width: 0.113137"/>
     <use xlink:href="#m837a4837f3" x="242.973456" y="245.655777" style="fill: #1f77b4; stroke: #ffffff; stroke-width: 0.113137"/>
     <use xlink:href="#m837a4837f3" x="246.252794" y="188.881896" style="fill: #1f77b4; stroke: #ffffff; stroke-width: 0.113137"/>
     <use xlink:href="#m837a4837f3" x="249.532133" y="219.776322" style="fill: #1f77b4; stroke: #ffffff; stroke-width: 0.113137"/>
     <use xlink:href="#m837a4837f3" x="252.811472" y="239.957447" style="fill: #1f77b4; stroke: #ffffff; stroke-width: 0.113137"/>
     <use xlink:href="#m837a4837f3" x="256.090811" y="221.958661" style="fill: #1f77b4; stroke: #ffffff; stroke-width: 0.113137"/>
     <use xlink:href="#m837a4837f3" x="259.37015" y="222.840414" style="fill: #1f77b4; stroke: #ffffff; stroke-width: 0.113137"/>
     <use xlink:href="#m837a4837f3" x="262.649489" y="208.280465" style="fill: #1f77b4; stroke: #ffffff; stroke-width: 0.113137"/>
     <use xlink:href="#m837a4837f3" x="265.928827" y="218.630043" style="fill: #1f77b4; stroke: #ffffff; stroke-width: 0.113137"/>
     <use xlink:href="#m837a4837f3" x="269.208166" y="246.702859" style="fill: #1f77b4; stroke: #ffffff; stroke-width: 0.113137"/>
     <use xlink:href="#m837a4837f3" x="272.487505" y="208.644188" style="fill: #1f77b4; stroke: #ffffff; stroke-width: 0.113137"/>
     <use xlink:href="#m837a4837f3" x="275.766844" y="191.229564" style="fill: #1f77b4; stroke: #ffffff; stroke-width: 0.113137"/>
     <use xlink:href="#m837a4837f3" x="279.046183" y="233.112839" style="fill: #1f77b4; stroke: #ffffff; stroke-width: 0.113137"/>
     <use xlink:href="#m837a4837f3" x="282.325522" y="104.321768" style="fill: #1f77b4; stroke: #ffffff; stroke-width: 0.113137"/>
     <use xlink:href="#m837a4837f3" x="285.604861" y="54.116948" style="fill: #1f77b4; stroke: #ffffff; stroke-width: 0.113137"/>
     <use xlink:href="#m837a4837f3" x="288.884199" y="193.323727" style="fill: #1f77b4; stroke: #ffffff; stroke-width: 0.113137"/>
     <use xlink:href="#m837a4837f3" x="292.163538" y="170.574496" style="fill: #1f77b4; stroke: #ffffff; stroke-width: 0.113137"/>
     <use xlink:href="#m837a4837f3" x="295.442877" y="129.936697" style="fill: #1f77b4; stroke: #ffffff; stroke-width: 0.113137"/>
     <use xlink:href="#m837a4837f3" x="298.722216" y="121.989897" style="fill: #1f77b4; stroke: #ffffff; stroke-width: 0.113137"/>
     <use xlink:href="#m837a4837f3" x="302.001555" y="113.734483" style="fill: #1f77b4; stroke: #ffffff; stroke-width: 0.113137"/>
     <use xlink:href="#m837a4837f3" x="305.280894" y="22.054199" style="fill: #1f77b4; stroke: #ffffff; stroke-width: 0.113137"/>
     <use xlink:href="#m837a4837f3" x="308.560232" y="173.440194" style="fill: #1f77b4; stroke: #ffffff; stroke-width: 0.113137"/>
     <use xlink:href="#m837a4837f3" x="311.839571" y="195.748549" style="fill: #1f77b4; stroke: #ffffff; stroke-width: 0.113137"/>
     <use xlink:href="#m837a4837f3" x="315.11891" y="209.69127" style="fill: #1f77b4; stroke: #ffffff; stroke-width: 0.113137"/>
     <use xlink:href="#m837a4837f3" x="318.398249" y="226.146989" style="fill: #1f77b4; stroke: #ffffff; stroke-width: 0.113137"/>
     <use xlink:href="#m837a4837f3" x="321.677588" y="215.3896" style="fill: #1f77b4; stroke: #ffffff; stroke-width: 0.113137"/>
     <use xlink:href="#m837a4837f3" x="324.956927" y="225.254214" style="fill: #1f77b4; stroke: #ffffff; stroke-width: 0.113137"/>
     <use xlink:href="#m837a4837f3" x="328.236265" y="199.650306" style="fill: #1f77b4; stroke: #ffffff; stroke-width: 0.113137"/>
     <use xlink:href="#m837a4837f3" x="331.515604" y="200.741476" style="fill: #1f77b4; stroke: #ffffff; stroke-width: 0.113137"/>
     <use xlink:href="#m837a4837f3" x="334.794943" y="180.472175" style="fill: #1f77b4; stroke: #ffffff; stroke-width: 0.113137"/>
     <use xlink:href="#m837a4837f3" x="338.074282" y="221.749245" style="fill: #1f77b4; stroke: #ffffff; stroke-width: 0.113137"/>
     <use xlink:href="#m837a4837f3" x="341.353621" y="242.338181" style="fill: #1f77b4; stroke: #ffffff; stroke-width: 0.113137"/>
     <use xlink:href="#m837a4837f3" x="344.63296" y="220.503768" style="fill: #1f77b4; stroke: #ffffff; stroke-width: 0.113137"/>
     <use xlink:href="#m837a4837f3" x="347.912299" y="241.026573" style="fill: #1f77b4; stroke: #ffffff; stroke-width: 0.113137"/>
     <use xlink:href="#m837a4837f3" x="351.191637" y="239.461461" style="fill: #1f77b4; stroke: #ffffff; stroke-width: 0.113137"/>
     <use xlink:href="#m837a4837f3" x="354.470976" y="216.304419" style="fill: #1f77b4; stroke: #ffffff; stroke-width: 0.113137"/>
     <use xlink:href="#m837a4837f3" x="357.750315" y="241.136792" style="fill: #1f77b4; stroke: #ffffff; stroke-width: 0.113137"/>
     <use xlink:href="#m837a4837f3" x="361.029654" y="242.96643" style="fill: #1f77b4; stroke: #ffffff; stroke-width: 0.113137"/>
     <use xlink:href="#m837a4837f3" x="364.308993" y="217.836465" style="fill: #1f77b4; stroke: #ffffff; stroke-width: 0.113137"/>
     <use xlink:href="#m837a4837f3" x="367.588332" y="234.137877" style="fill: #1f77b4; stroke: #ffffff; stroke-width: 0.113137"/>
     <use xlink:href="#m837a4837f3" x="370.86767" y="222.730195" style="fill: #1f77b4; stroke: #ffffff; stroke-width: 0.113137"/>
     <use xlink:href="#m837a4837f3" x="374.147009" y="172.4372" style="fill: #1f77b4; stroke: #ffffff; stroke-width: 0.113137"/>
     <use xlink:href="#m837a4837f3" x="377.426348" y="220.415593" style="fill: #1f77b4; stroke: #ffffff; stroke-width: 0.113137"/>
     <use xlink:href="#m837a4837f3" x="380.705687" y="217.825443" style="fill: #1f77b4; stroke: #ffffff; stroke-width: 0.113137"/>
     <use xlink:href="#m837a4837f3" x="383.985026" y="218.26632" style="fill: #1f77b4; stroke: #ffffff; stroke-width: 0.113137"/>
     <use xlink:href="#m837a4837f3" x="387.264365" y="187.206565" style="fill: #1f77b4; stroke: #ffffff; stroke-width: 0.113137"/>
     <use xlink:href="#m837a4837f3" x="390.543704" y="172.679682" style="fill: #1f77b4; stroke: #ffffff; stroke-width: 0.113137"/>
     <use xlink:href="#m837a4837f3" x="393.823042" y="172.966251" style="fill: #1f77b4; stroke: #ffffff; stroke-width: 0.113137"/>
     <use xlink:href="#m837a4837f3" x="397.102381" y="183.304807" style="fill: #1f77b4; stroke: #ffffff; stroke-width: 0.113137"/>
     <use xlink:href="#m837a4837f3" x="400.38172" y="239.990513" style="fill: #1f77b4; stroke: #ffffff; stroke-width: 0.113137"/>
     <use xlink:href="#m837a4837f3" x="403.661059" y="218.707196" style="fill: #1f77b4; stroke: #ffffff; stroke-width: 0.113137"/>
     <use xlink:href="#m837a4837f3" x="406.940398" y="217.285369" style="fill: #1f77b4; stroke: #ffffff; stroke-width: 0.113137"/>
    </g>
   </g>
   <g id="matplotlib.axis_1">
    <g id="xtick_1">
     <g id="line2d_1">
      <defs>
       <path id="m73f989dac6" d="M 0 0 
L 0 3.5 
" style="stroke: #000000; stroke-width: 0.8"/>
      </defs>
      <g>
       <use xlink:href="#m73f989dac6" x="82.285852" y="276.070199" style="stroke: #000000; stroke-width: 0.8"/>
      </g>
     </g>
     <g id="text_1">
      <!-- 0 -->
      <g transform="translate(79.104602 290.668636) scale(0.1 -0.1)">
       <defs>
        <path id="DejaVuSans-30" d="M 2034 4250 
Q 1547 4250 1301 3770 
Q 1056 3291 1056 2328 
Q 1056 1369 1301 889 
Q 1547 409 2034 409 
Q 2525 409 2770 889 
Q 3016 1369 3016 2328 
Q 3016 3291 2770 3770 
Q 2525 4250 2034 4250 
z
M 2034 4750 
Q 2819 4750 3233 4129 
Q 3647 3509 3647 2328 
Q 3647 1150 3233 529 
Q 2819 -91 2034 -91 
Q 1250 -91 836 529 
Q 422 1150 422 2328 
Q 422 3509 836 4129 
Q 1250 4750 2034 4750 
z
" transform="scale(0.015625)"/>
       </defs>
       <use xlink:href="#DejaVuSans-30"/>
      </g>
     </g>
    </g>
    <g id="text_2">
     <!-- Test index -->
     <g transform="translate(219.498281 304.346761) scale(0.1 -0.1)">
      <defs>
       <path id="DejaVuSans-54" d="M -19 4666 
L 3928 4666 
L 3928 4134 
L 2272 4134 
L 2272 0 
L 1638 0 
L 1638 4134 
L -19 4134 
L -19 4666 
z
" transform="scale(0.015625)"/>
       <path id="DejaVuSans-65" d="M 3597 1894 
L 3597 1613 
L 953 1613 
Q 991 1019 1311 708 
Q 1631 397 2203 397 
Q 2534 397 2845 478 
Q 3156 559 3463 722 
L 3463 178 
Q 3153 47 2828 -22 
Q 2503 -91 2169 -91 
Q 1331 -91 842 396 
Q 353 884 353 1716 
Q 353 2575 817 3079 
Q 1281 3584 2069 3584 
Q 2775 3584 3186 3129 
Q 3597 2675 3597 1894 
z
M 3022 2063 
Q 3016 2534 2758 2815 
Q 2500 3097 2075 3097 
Q 1594 3097 1305 2825 
Q 1016 2553 972 2059 
L 3022 2063 
z
" transform="scale(0.015625)"/>
       <path id="DejaVuSans-73" d="M 2834 3397 
L 2834 2853 
Q 2591 2978 2328 3040 
Q 2066 3103 1784 3103 
Q 1356 3103 1142 2972 
Q 928 2841 928 2578 
Q 928 2378 1081 2264 
Q 1234 2150 1697 2047 
L 1894 2003 
Q 2506 1872 2764 1633 
Q 3022 1394 3022 966 
Q 3022 478 2636 193 
Q 2250 -91 1575 -91 
Q 1294 -91 989 -36 
Q 684 19 347 128 
L 347 722 
Q 666 556 975 473 
Q 1284 391 1588 391 
Q 1994 391 2212 530 
Q 2431 669 2431 922 
Q 2431 1156 2273 1281 
Q 2116 1406 1581 1522 
L 1381 1569 
Q 847 1681 609 1914 
Q 372 2147 372 2553 
Q 372 3047 722 3315 
Q 1072 3584 1716 3584 
Q 2034 3584 2315 3537 
Q 2597 3491 2834 3397 
z
" transform="scale(0.015625)"/>
       <path id="DejaVuSans-74" d="M 1172 4494 
L 1172 3500 
L 2356 3500 
L 2356 3053 
L 1172 3053 
L 1172 1153 
Q 1172 725 1289 603 
Q 1406 481 1766 481 
L 2356 481 
L 2356 0 
L 1766 0 
Q 1100 0 847 248 
Q 594 497 594 1153 
L 594 3053 
L 172 3053 
L 172 3500 
L 594 3500 
L 594 4494 
L 1172 4494 
z
" transform="scale(0.015625)"/>
       <path id="DejaVuSans-20" transform="scale(0.015625)"/>
       <path id="DejaVuSans-69" d="M 603 3500 
L 1178 3500 
L 1178 0 
L 603 0 
L 603 3500 
z
M 603 4863 
L 1178 4863 
L 1178 4134 
L 603 4134 
L 603 4863 
z
" transform="scale(0.015625)"/>
       <path id="DejaVuSans-6e" d="M 3513 2113 
L 3513 0 
L 2938 0 
L 2938 2094 
Q 2938 2591 2744 2837 
Q 2550 3084 2163 3084 
Q 1697 3084 1428 2787 
Q 1159 2491 1159 1978 
L 1159 0 
L 581 0 
L 581 3500 
L 1159 3500 
L 1159 2956 
Q 1366 3272 1645 3428 
Q 1925 3584 2291 3584 
Q 2894 3584 3203 3211 
Q 3513 2838 3513 2113 
z
" transform="scale(0.015625)"/>
       <path id="DejaVuSans-64" d="M 2906 2969 
L 2906 4863 
L 3481 4863 
L 3481 0 
L 2906 0 
L 2906 525 
Q 2725 213 2448 61 
Q 2172 -91 1784 -91 
Q 1150 -91 751 415 
Q 353 922 353 1747 
Q 353 2572 751 3078 
Q 1150 3584 1784 3584 
Q 2172 3584 2448 3432 
Q 2725 3281 2906 2969 
z
M 947 1747 
Q 947 1113 1208 752 
Q 1469 391 1925 391 
Q 2381 391 2643 752 
Q 2906 1113 2906 1747 
Q 2906 2381 2643 2742 
Q 2381 3103 1925 3103 
Q 1469 3103 1208 2742 
Q 947 2381 947 1747 
z
" transform="scale(0.015625)"/>
       <path id="DejaVuSans-78" d="M 3513 3500 
L 2247 1797 
L 3578 0 
L 2900 0 
L 1881 1375 
L 863 0 
L 184 0 
L 1544 1831 
L 300 3500 
L 978 3500 
L 1906 2253 
L 2834 3500 
L 3513 3500 
z
" transform="scale(0.015625)"/>
      </defs>
      <use xlink:href="#DejaVuSans-54"/>
      <use xlink:href="#DejaVuSans-65" x="44.083984"/>
      <use xlink:href="#DejaVuSans-73" x="105.607422"/>
      <use xlink:href="#DejaVuSans-74" x="157.707031"/>
      <use xlink:href="#DejaVuSans-20" x="196.916016"/>
      <use xlink:href="#DejaVuSans-69" x="228.703125"/>
      <use xlink:href="#DejaVuSans-6e" x="256.486328"/>
      <use xlink:href="#DejaVuSans-64" x="319.865234"/>
      <use xlink:href="#DejaVuSans-65" x="383.341797"/>
      <use xlink:href="#DejaVuSans-78" x="443.115234"/>
     </g>
    </g>
   </g>
   <g id="matplotlib.axis_2">
    <g id="ytick_1">
     <g id="line2d_2">
      <defs>
       <path id="maec6101ea5" d="M 0 0 
L -3.5 0 
" style="stroke: #000000; stroke-width: 0.8"/>
      </defs>
      <g>
       <use xlink:href="#maec6101ea5" x="66.053125" y="231.437508" style="stroke: #000000; stroke-width: 0.8"/>
      </g>
     </g>
     <g id="text_3">
      <!-- 130000 -->
      <g transform="translate(20.878125 235.236726) scale(0.1 -0.1)">
       <defs>
        <path id="DejaVuSans-31" d="M 794 531 
L 1825 531 
L 1825 4091 
L 703 3866 
L 703 4441 
L 1819 4666 
L 2450 4666 
L 2450 531 
L 3481 531 
L 3481 0 
L 794 0 
L 794 531 
z
" transform="scale(0.015625)"/>
        <path id="DejaVuSans-33" d="M 2597 2516 
Q 3050 2419 3304 2112 
Q 3559 1806 3559 1356 
Q 3559 666 3084 287 
Q 2609 -91 1734 -91 
Q 1441 -91 1130 -33 
Q 819 25 488 141 
L 488 750 
Q 750 597 1062 519 
Q 1375 441 1716 441 
Q 2309 441 2620 675 
Q 2931 909 2931 1356 
Q 2931 1769 2642 2001 
Q 2353 2234 1838 2234 
L 1294 2234 
L 1294 2753 
L 1863 2753 
Q 2328 2753 2575 2939 
Q 2822 3125 2822 3475 
Q 2822 3834 2567 4026 
Q 2313 4219 1838 4219 
Q 1578 4219 1281 4162 
Q 984 4106 628 3988 
L 628 4550 
Q 988 4650 1302 4700 
Q 1616 4750 1894 4750 
Q 2613 4750 3031 4423 
Q 3450 4097 3450 3541 
Q 3450 3153 3228 2886 
Q 3006 2619 2597 2516 
z
" transform="scale(0.015625)"/>
       </defs>
       <use xlink:href="#DejaVuSans-31"/>
       <use xlink:href="#DejaVuSans-33" x="63.623047"/>
       <use xlink:href="#DejaVuSans-30" x="127.246094"/>
       <use xlink:href="#DejaVuSans-30" x="190.869141"/>
       <use xlink:href="#DejaVuSans-30" x="254.492188"/>
       <use xlink:href="#DejaVuSans-30" x="318.115234"/>
      </g>
     </g>
    </g>
    <g id="ytick_2">
     <g id="line2d_3">
      <g>
       <use xlink:href="#maec6101ea5" x="66.053125" y="176.327935" style="stroke: #000000; stroke-width: 0.8"/>
      </g>
     </g>
     <g id="text_4">
      <!-- 135000 -->
      <g transform="translate(20.878125 180.127154) scale(0.1 -0.1)">
       <defs>
        <path id="DejaVuSans-35" d="M 691 4666 
L 3169 4666 
L 3169 4134 
L 1269 4134 
L 1269 2991 
Q 1406 3038 1543 3061 
Q 1681 3084 1819 3084 
Q 2600 3084 3056 2656 
Q 3513 2228 3513 1497 
Q 3513 744 3044 326 
Q 2575 -91 1722 -91 
Q 1428 -91 1123 -41 
Q 819 9 494 109 
L 494 744 
Q 775 591 1075 516 
Q 1375 441 1709 441 
Q 2250 441 2565 725 
Q 2881 1009 2881 1497 
Q 2881 1984 2565 2268 
Q 2250 2553 1709 2553 
Q 1456 2553 1204 2497 
Q 953 2441 691 2322 
L 691 4666 
z
" transform="scale(0.015625)"/>
       </defs>
       <use xlink:href="#DejaVuSans-31"/>
       <use xlink:href="#DejaVuSans-33" x="63.623047"/>
       <use xlink:href="#DejaVuSans-35" x="127.246094"/>
       <use xlink:href="#DejaVuSans-30" x="190.869141"/>
       <use xlink:href="#DejaVuSans-30" x="254.492188"/>
       <use xlink:href="#DejaVuSans-30" x="318.115234"/>
      </g>
     </g>
    </g>
    <g id="ytick_3">
     <g id="line2d_4">
      <g>
       <use xlink:href="#maec6101ea5" x="66.053125" y="121.218363" style="stroke: #000000; stroke-width: 0.8"/>
      </g>
     </g>
     <g id="text_5">
      <!-- 140000 -->
      <g transform="translate(20.878125 125.017582) scale(0.1 -0.1)">
       <defs>
        <path id="DejaVuSans-34" d="M 2419 4116 
L 825 1625 
L 2419 1625 
L 2419 4116 
z
M 2253 4666 
L 3047 4666 
L 3047 1625 
L 3713 1625 
L 3713 1100 
L 3047 1100 
L 3047 0 
L 2419 0 
L 2419 1100 
L 313 1100 
L 313 1709 
L 2253 4666 
z
" transform="scale(0.015625)"/>
       </defs>
       <use xlink:href="#DejaVuSans-31"/>
       <use xlink:href="#DejaVuSans-34" x="63.623047"/>
       <use xlink:href="#DejaVuSans-30" x="127.246094"/>
       <use xlink:href="#DejaVuSans-30" x="190.869141"/>
       <use xlink:href="#DejaVuSans-30" x="254.492188"/>
       <use xlink:href="#DejaVuSans-30" x="318.115234"/>
      </g>
     </g>
    </g>
    <g id="ytick_4">
     <g id="line2d_5">
      <g>
       <use xlink:href="#maec6101ea5" x="66.053125" y="66.108791" style="stroke: #000000; stroke-width: 0.8"/>
      </g>
     </g>
     <g id="text_6">
      <!-- 145000 -->
      <g transform="translate(20.878125 69.90801) scale(0.1 -0.1)">
       <use xlink:href="#DejaVuSans-31"/>
       <use xlink:href="#DejaVuSans-34" x="63.623047"/>
       <use xlink:href="#DejaVuSans-35" x="127.246094"/>
       <use xlink:href="#DejaVuSans-30" x="190.869141"/>
       <use xlink:href="#DejaVuSans-30" x="254.492188"/>
       <use xlink:href="#DejaVuSans-30" x="318.115234"/>
      </g>
     </g>
    </g>
    <g id="ytick_5">
     <g id="line2d_6">
      <g>
       <use xlink:href="#maec6101ea5" x="66.053125" y="10.999219" style="stroke: #000000; stroke-width: 0.8"/>
      </g>
     </g>
     <g id="text_7">
      <!-- 150000 -->
      <g transform="translate(20.878125 14.798437) scale(0.1 -0.1)">
       <use xlink:href="#DejaVuSans-31"/>
       <use xlink:href="#DejaVuSans-35" x="63.623047"/>
       <use xlink:href="#DejaVuSans-30" x="127.246094"/>
       <use xlink:href="#DejaVuSans-30" x="190.869141"/>
       <use xlink:href="#DejaVuSans-30" x="254.492188"/>
       <use xlink:href="#DejaVuSans-30" x="318.115234"/>
      </g>
     </g>
    </g>
    <g id="text_8">
     <!-- Time ms -->
     <g transform="translate(14.798438 164.311855) rotate(-90) scale(0.1 -0.1)">
      <defs>
       <path id="DejaVuSans-6d" d="M 3328 2828 
Q 3544 3216 3844 3400 
Q 4144 3584 4550 3584 
Q 5097 3584 5394 3201 
Q 5691 2819 5691 2113 
L 5691 0 
L 5113 0 
L 5113 2094 
Q 5113 2597 4934 2840 
Q 4756 3084 4391 3084 
Q 3944 3084 3684 2787 
Q 3425 2491 3425 1978 
L 3425 0 
L 2847 0 
L 2847 2094 
Q 2847 2600 2669 2842 
Q 2491 3084 2119 3084 
Q 1678 3084 1418 2786 
Q 1159 2488 1159 1978 
L 1159 0 
L 581 0 
L 581 3500 
L 1159 3500 
L 1159 2956 
Q 1356 3278 1631 3431 
Q 1906 3584 2284 3584 
Q 2666 3584 2933 3390 
Q 3200 3197 3328 2828 
z
" transform="scale(0.015625)"/>
      </defs>
      <use xlink:href="#DejaVuSans-54"/>
      <use xlink:href="#DejaVuSans-69" x="57.958984"/>
      <use xlink:href="#DejaVuSans-6d" x="85.742188"/>
      <use xlink:href="#DejaVuSans-65" x="183.154297"/>
      <use xlink:href="#DejaVuSans-20" x="244.677734"/>
      <use xlink:href="#DejaVuSans-6d" x="276.464844"/>
      <use xlink:href="#DejaVuSans-73" x="373.876953"/>
     </g>
    </g>
   </g>
   <g id="patch_3">
    <path d="M 66.053125 276.070199 
L 66.053125 9.958199 
" style="fill: none; stroke: #000000; stroke-width: 0.8; stroke-linejoin: miter; stroke-linecap: square"/>
   </g>
   <g id="patch_4">
    <path d="M 423.173125 276.070199 
L 423.173125 9.958199 
" style="fill: none; stroke: #000000; stroke-width: 0.8; stroke-linejoin: miter; stroke-linecap: square"/>
   </g>
   <g id="patch_5">
    <path d="M 66.053125 276.070199 
L 423.173125 276.070199 
" style="fill: none; stroke: #000000; stroke-width: 0.8; stroke-linejoin: miter; stroke-linecap: square"/>
   </g>
   <g id="patch_6">
    <path d="M 66.053125 9.958199 
L 423.173125 9.958199 
" style="fill: none; stroke: #000000; stroke-width: 0.8; stroke-linejoin: miter; stroke-linecap: square"/>
   </g>
  </g>
 </g>
 <defs>
  <clipPath id="p6a44aef962">
   <rect x="66.053125" y="9.958199" width="357.12" height="266.112"/>
  </clipPath>
 </defs>
</svg>
